<svg width="447" height="523" viewBox="0 0 447 523" fill="none" xmlns="http://www.w3.org/2000/svg">
<path d="M366.015 133.898H358.824L357.457 138H353.095L360.506 118.094H364.306L371.758 138H367.396L366.015 133.898ZM359.931 130.576H364.908L362.406 123.125L359.931 130.576ZM377.719 130.986V138H373.617V118.094H381.383C382.877 118.094 384.19 118.367 385.32 118.914C386.459 119.461 387.334 120.24 387.945 121.252C388.556 122.254 388.861 123.398 388.861 124.683C388.861 126.634 388.191 128.174 386.851 129.304C385.521 130.426 383.675 130.986 381.314 130.986H377.719ZM377.719 127.664H381.383C382.467 127.664 383.292 127.409 383.857 126.898C384.431 126.388 384.719 125.659 384.719 124.711C384.719 123.735 384.431 122.947 383.857 122.345C383.283 121.744 382.49 121.434 381.478 121.416H377.719V127.664ZM396.052 138H391.951V118.094H396.052V138Z" fill="#0E1C36"/>
<circle r="45.3199" transform="matrix(0.642788 -0.766044 0.766949 0.641708 375.938 127.838)" stroke="#EAFAEF" stroke-width="10"/>
<path d="M63.7529 98.1588H67.2685V109.971C67.2685 111.057 67.0263 112.018 66.5419 112.854C66.0654 113.682 65.3896 114.323 64.5146 114.776C63.6396 115.229 62.6513 115.456 61.5497 115.456C59.7451 115.456 58.3388 114.999 57.331 114.085C56.3232 113.163 55.8193 111.862 55.8193 110.182H59.3583C59.3583 111.018 59.5341 111.635 59.8857 112.034C60.2372 112.432 60.7919 112.631 61.5497 112.631C62.2216 112.631 62.7568 112.401 63.1552 111.94C63.5536 111.479 63.7529 110.823 63.7529 109.971V98.1588ZM77.4052 115.221C77.249 114.917 77.1357 114.538 77.0654 114.085C76.2451 114.999 75.1786 115.456 73.8661 115.456C72.624 115.456 71.5927 115.096 70.7724 114.378C69.9599 113.659 69.5536 112.753 69.5536 111.659C69.5536 110.315 70.0497 109.284 71.0419 108.565C72.0419 107.846 73.4833 107.483 75.3661 107.475H76.9247V106.749C76.9247 106.163 76.7724 105.694 76.4677 105.342C76.1708 104.991 75.6982 104.815 75.0497 104.815C74.4794 104.815 74.0302 104.952 73.7021 105.225C73.3818 105.499 73.2216 105.874 73.2216 106.35H69.8349C69.8349 105.616 70.0615 104.936 70.5146 104.311C70.9677 103.686 71.6083 103.198 72.4365 102.846C73.2646 102.487 74.1943 102.307 75.2255 102.307C76.788 102.307 78.0263 102.702 78.9404 103.491C79.8622 104.272 80.3232 105.374 80.3232 106.796V112.292C80.331 113.495 80.499 114.405 80.8271 115.022V115.221H77.4052ZM74.6044 112.866C75.1044 112.866 75.5654 112.756 75.9872 112.538C76.4091 112.311 76.7216 112.01 76.9247 111.635V109.456H75.6591C73.9638 109.456 73.0615 110.042 72.9521 111.213L72.9404 111.413C72.9404 111.835 73.0888 112.182 73.3857 112.456C73.6826 112.729 74.0888 112.866 74.6044 112.866ZM87.4833 111.085L89.8388 102.542H93.3779L89.1005 115.221H85.8661L81.5888 102.542H85.1279L87.4833 111.085ZM102.038 115.221C101.882 114.917 101.768 114.538 101.698 114.085C100.878 114.999 99.8115 115.456 98.499 115.456C97.2568 115.456 96.2255 115.096 95.4052 114.378C94.5927 113.659 94.1865 112.753 94.1865 111.659C94.1865 110.315 94.6826 109.284 95.6747 108.565C96.6747 107.846 98.1161 107.483 99.999 107.475H101.558V106.749C101.558 106.163 101.405 105.694 101.101 105.342C100.804 104.991 100.331 104.815 99.6826 104.815C99.1122 104.815 98.663 104.952 98.3349 105.225C98.0146 105.499 97.8544 105.874 97.8544 106.35H94.4677C94.4677 105.616 94.6943 104.936 95.1474 104.311C95.6005 103.686 96.2411 103.198 97.0693 102.846C97.8974 102.487 98.8271 102.307 99.8583 102.307C101.421 102.307 102.659 102.702 103.573 103.491C104.495 104.272 104.956 105.374 104.956 106.796V112.292C104.964 113.495 105.132 114.405 105.46 115.022V115.221H102.038ZM99.2372 112.866C99.7372 112.866 100.198 112.756 100.62 112.538C101.042 112.311 101.354 112.01 101.558 111.635V109.456H100.292C98.5966 109.456 97.6943 110.042 97.5849 111.213L97.5732 111.413C97.5732 111.835 97.7216 112.182 98.0185 112.456C98.3154 112.729 98.7216 112.866 99.2372 112.866ZM122.604 110.745C122.604 110.081 122.37 109.573 121.901 109.221C121.433 108.862 120.589 108.487 119.37 108.096C118.151 107.698 117.186 107.307 116.476 106.924C114.538 105.878 113.569 104.467 113.569 102.694C113.569 101.772 113.827 100.952 114.343 100.233C114.866 99.5064 115.612 98.94 116.581 98.5338C117.558 98.1275 118.651 97.9244 119.862 97.9244C121.081 97.9244 122.167 98.1471 123.12 98.5924C124.073 99.0299 124.811 99.651 125.335 100.456C125.866 101.26 126.132 102.174 126.132 103.198H122.616C122.616 102.417 122.37 101.811 121.878 101.381C121.386 100.944 120.694 100.725 119.804 100.725C118.944 100.725 118.276 100.909 117.8 101.276C117.323 101.635 117.085 102.112 117.085 102.706C117.085 103.26 117.362 103.725 117.917 104.1C118.479 104.475 119.304 104.827 120.39 105.155C122.39 105.756 123.847 106.503 124.761 107.393C125.675 108.284 126.132 109.393 126.132 110.721C126.132 112.198 125.573 113.358 124.456 114.202C123.339 115.038 121.835 115.456 119.944 115.456C118.632 115.456 117.436 115.217 116.358 114.741C115.28 114.256 114.456 113.596 113.886 112.76C113.323 111.924 113.042 110.956 113.042 109.854H116.569C116.569 111.737 117.694 112.678 119.944 112.678C120.78 112.678 121.433 112.51 121.901 112.174C122.37 111.831 122.604 111.354 122.604 110.745ZM128.522 115.221V98.1588H133.772C135.272 98.1588 136.612 98.4986 137.792 99.1783C138.979 99.8502 139.905 100.811 140.569 102.061C141.233 103.303 141.565 104.717 141.565 106.303V107.088C141.565 108.674 141.237 110.085 140.581 111.319C139.933 112.553 139.015 113.51 137.827 114.19C136.64 114.87 135.3 115.213 133.808 115.221H128.522ZM132.038 101.006V112.397H133.737C135.112 112.397 136.163 111.948 136.89 111.049C137.616 110.151 137.987 108.866 138.003 107.194V106.292C138.003 104.557 137.643 103.245 136.925 102.354C136.206 101.456 135.155 101.006 133.772 101.006H132.038ZM149.476 108.378L147.647 110.346V115.221H144.132V98.1588H147.647V105.893L149.194 103.772L153.542 98.1588H157.866L151.808 105.741L158.042 115.221H153.858L149.476 108.378Z" fill="#0E1C36"/>
<path d="M164.038 155.179C138.512 185.688 93.1156 189.691 62.6432 164.122C32.1708 138.553 28.1613 93.0927 53.6878 62.5844C79.2142 32.076 124.61 28.0722 155.083 53.6415C185.555 79.2109 189.565 124.671 164.038 155.179Z" stroke="#EAFAEF" stroke-width="10"/>
<circle cx="256" cy="323.004" r="160" stroke="#EAFAEF" stroke-width="10"/>
<g filter="url(#filter0_d)">
<rect x="139" y="147.352" width="234.062" height="351.222" rx="10" fill="black"/>
<rect x="139" y="147.352" width="234.062" height="351.222" rx="10" fill="url(#paint0_linear)" fill-opacity="0.5"/>
</g>
<g clip-path="url(#clip0)">
<path d="M229.802 204.904L226.482 200.103L225.486 201.262V204.904H222.498V188.102H225.486V197.538H225.652L229.305 193.234H232.791L228.474 198.2L233.04 204.904H229.802Z" fill="white"/>
<path d="M238.186 205.069C237.024 205.069 236.028 204.82 235.198 204.324C234.368 203.827 233.704 203.165 233.206 202.255C232.708 201.344 232.542 200.351 232.542 199.11C232.542 197.951 232.791 196.875 233.206 195.964C233.621 195.054 234.285 194.309 235.115 193.813C235.945 193.316 236.941 192.985 238.103 192.985C239.099 192.985 240.012 193.233 240.759 193.647C241.589 194.061 242.17 194.723 242.668 195.551C243.166 196.378 243.332 197.454 243.332 198.696V199.937H235.447C235.53 200.765 235.862 201.51 236.277 202.006C236.775 202.503 237.356 202.751 238.269 202.751C238.933 202.751 239.514 202.586 239.846 202.255C240.178 201.924 240.427 201.593 240.593 201.096L243.249 201.841C243.083 202.337 242.834 202.917 242.419 203.413C242.004 203.91 241.506 204.324 240.759 204.655C240.012 204.903 239.182 205.069 238.186 205.069ZM238.02 195.468C237.356 195.468 236.775 195.716 236.36 196.13C235.945 196.544 235.613 197.123 235.447 197.951H240.51C240.51 197.289 240.261 196.709 239.846 196.213C239.348 195.716 238.767 195.468 238.02 195.468Z" fill="white"/>
<path d="M247.398 205.4L247.647 204.82L243.414 193.233H246.485L249.059 200.93H249.225L251.797 193.233H254.868L249.888 206.641C249.722 207.055 249.473 207.552 249.142 207.966C248.81 208.379 248.394 208.793 247.896 209.041C247.398 209.29 246.734 209.455 245.987 209.455C245.655 209.455 245.406 209.455 245.074 209.373C244.742 209.29 244.576 209.207 244.327 209.124L244.991 206.807C245.738 206.972 246.236 206.972 246.568 206.724C246.817 206.558 247.149 206.062 247.398 205.4Z" fill="white"/>
<path d="M265.244 196.958L262.505 197.371C262.339 196.792 262.09 196.378 261.758 196.047C261.426 195.716 260.928 195.551 260.264 195.551C259.351 195.551 258.77 195.882 258.272 196.544C257.857 197.206 257.608 198.034 257.608 199.109C257.608 200.185 257.857 201.096 258.272 201.758C258.687 202.42 259.351 202.751 260.264 202.751C260.845 202.751 261.343 202.586 261.675 202.255C262.007 201.924 262.339 201.51 262.422 201.013L265.161 201.427C264.912 202.503 264.331 203.413 263.501 204.158C262.588 204.82 261.509 205.234 260.181 205.234C259.019 205.234 258.106 204.986 257.276 204.489C256.446 203.993 255.865 203.248 255.367 202.337C254.952 201.427 254.703 200.351 254.703 199.192C254.703 198.034 254.952 196.958 255.367 196.047C255.782 195.137 256.446 194.475 257.276 193.978C258.106 193.481 259.019 193.233 260.181 193.233C261.509 193.233 262.588 193.564 263.501 194.309C264.497 194.806 265.078 195.799 265.244 196.958Z" fill="white"/>
<path d="M272.963 204.903V203.579H272.797C272.631 203.91 272.299 204.324 271.801 204.655C271.303 204.986 270.639 205.151 269.809 205.151C269.145 205.151 268.481 204.986 267.9 204.738C267.319 204.489 266.904 204.075 266.489 203.579C266.157 203.082 265.991 202.42 265.991 201.675C265.991 200.517 266.406 199.689 267.236 199.109C268.066 198.53 269.228 198.199 270.722 198.034C271.054 198.034 271.386 197.951 271.718 197.951C272.05 197.951 272.299 197.868 272.548 197.785C272.714 197.702 272.88 197.537 272.88 197.371V197.206C272.88 196.709 272.714 196.295 272.382 195.964C272.05 195.716 271.635 195.551 271.137 195.551C270.556 195.551 270.141 195.716 269.726 195.964C269.311 196.213 269.145 196.544 268.979 196.958L266.24 196.544C266.489 195.468 267.07 194.64 267.983 194.061C268.896 193.481 269.975 193.233 271.22 193.233C271.967 193.233 272.714 193.399 273.461 193.647C274.125 193.895 274.706 194.309 275.204 194.888C275.619 195.468 275.868 196.295 275.868 197.206V205.069H272.963V204.903ZM272.797 201.013V199.441C272.714 199.523 272.548 199.606 272.382 199.689C272.133 199.772 271.884 199.772 271.635 199.854C271.386 199.937 271.137 199.937 270.971 199.937C270.307 200.02 269.726 200.185 269.394 200.434C269.062 200.682 268.896 201.096 268.896 201.592C268.896 202.006 269.062 202.337 269.311 202.586C269.643 202.834 269.975 202.917 270.473 202.917C271.137 202.917 271.635 202.751 272.133 202.337C272.631 201.924 272.797 201.51 272.797 201.013Z" fill="white"/>
<path d="M284.832 193.482L283.919 196.048C283.836 195.965 283.67 195.965 283.504 195.882C283.338 195.799 283.089 195.799 282.84 195.799C282.342 195.799 281.927 195.882 281.595 196.13C281.263 196.379 280.931 196.71 280.765 197.041C280.599 197.455 280.433 197.868 280.433 198.282V204.904H277.445V193.234H280.35V194.889H280.516C280.682 194.31 281.014 193.813 281.512 193.565C282.01 193.234 282.591 193.068 283.172 193.068C283.504 193.068 283.753 193.068 284.085 193.151C284.417 193.234 284.666 193.316 284.832 193.482Z" fill="white"/>
<path d="M295.041 204.904H292.136V203.497H291.97C291.804 203.91 291.472 204.241 290.974 204.572C290.476 204.904 289.895 205.069 289.065 205.069C288.152 205.069 287.405 204.821 286.741 204.407C286.077 203.91 285.496 203.248 285.081 202.338C284.666 201.427 284.5 200.351 284.5 199.027C284.5 197.703 284.749 196.627 285.164 195.716C285.579 194.806 286.16 194.144 286.824 193.73C287.571 193.316 288.318 193.068 289.148 193.068C289.895 193.068 290.559 193.233 291.057 193.565C291.555 193.896 291.887 194.227 292.053 194.64H292.136V189.343H295.041V204.904ZM287.239 199.027C287.239 200.103 287.488 201.014 287.903 201.676C288.318 202.338 288.982 202.669 289.895 202.669C290.476 202.669 290.974 202.503 291.389 202.172C291.721 201.841 292.053 201.427 292.219 200.848C292.385 200.269 292.468 199.689 292.468 199.027C292.468 198.034 292.302 197.123 291.887 196.461C291.472 195.799 290.891 195.468 289.978 195.468C289.065 195.468 288.484 195.799 287.986 196.461C287.488 197.123 287.239 197.951 287.239 199.027Z" fill="white"/>
<path d="M223.91 190.833C220.092 190.833 217.021 187.688 217.021 183.881C217.021 180.073 220.092 177.011 223.91 177.011C227.728 177.011 230.799 180.073 230.799 183.881C230.882 187.688 227.728 190.833 223.91 190.833ZM223.91 179.742C221.586 179.742 219.76 181.646 219.76 183.881C219.76 186.198 221.669 188.019 223.91 188.019C226.234 188.019 228.06 186.115 228.06 183.881C228.143 181.646 226.234 179.742 223.91 179.742Z" fill="white"/>
</g>
<g clip-path="url(#clip1)">
<path d="M273.21 412.447C272.88 412.118 272.432 411.933 271.966 411.934C271.5 411.934 271.053 412.12 270.724 412.45C270.395 412.781 270.21 413.228 270.211 413.695C270.212 414.161 270.397 414.608 270.727 414.937C271.461 415.671 272.043 416.542 272.441 417.501C272.838 418.46 273.042 419.488 273.042 420.526C273.042 421.564 272.838 422.592 272.441 423.551C272.043 424.51 271.461 425.381 270.727 426.115C270.564 426.278 270.434 426.471 270.346 426.685C270.257 426.898 270.212 427.126 270.211 427.357C270.211 427.588 270.256 427.817 270.345 428.03C270.433 428.243 270.562 428.437 270.725 428.601C270.888 428.764 271.081 428.894 271.294 428.982C271.507 429.071 271.736 429.116 271.967 429.117C272.197 429.117 272.426 429.072 272.639 428.984C272.852 428.895 273.046 428.766 273.21 428.603C274.269 427.543 275.11 426.285 275.684 424.9C276.257 423.515 276.552 422.03 276.552 420.531C276.552 419.032 276.257 417.548 275.684 416.163C275.11 414.778 274.269 413.519 273.21 412.459L273.21 412.447Z" fill="white" fill-opacity="0.5"/>
<path d="M276.006 411.218C278.472 413.687 279.856 417.035 279.856 420.525C279.856 424.015 278.472 427.363 276.006 429.833C275.838 429.995 275.705 430.188 275.613 430.403C275.521 430.617 275.472 430.847 275.47 431.08C275.468 431.314 275.513 431.545 275.601 431.761C275.689 431.976 275.819 432.173 275.984 432.337C276.149 432.502 276.345 432.633 276.561 432.721C276.777 432.809 277.008 432.854 277.241 432.852C277.474 432.85 277.704 432.801 277.918 432.709C278.133 432.617 278.326 432.483 278.488 432.316C281.616 429.187 283.373 424.944 283.373 420.519C283.373 416.094 281.616 411.851 278.488 408.722C278.157 408.393 277.709 408.209 277.243 408.21C277.012 408.21 276.783 408.257 276.57 408.345C276.357 408.434 276.163 408.565 276 408.728C275.837 408.892 275.708 409.087 275.62 409.3C275.532 409.514 275.487 409.743 275.488 409.974C275.489 410.441 275.675 410.888 276.006 411.218Z" fill="white" fill-opacity="0.5"/>
</g>
<rect x="209.999" y="394.769" width="46.8123" height="49.2311" rx="5" fill="#EEC458"/>
<rect x="209.999" y="394.769" width="46.8123" height="49.2311" rx="5" fill="url(#paint1_linear)" fill-opacity="0.6"/>
<mask id="mask0" mask-type="alpha" maskUnits="userSpaceOnUse" x="209" y="394" width="48" height="50">
<rect x="209.999" y="394.769" width="46.8123" height="49.2311" rx="5" fill="#EEC458"/>
<rect x="209.999" y="394.769" width="46.8123" height="49.2311" rx="5" fill="url(#paint2_linear)" fill-opacity="0.6"/>
</mask>
<g mask="url(#mask0)">
<rect x="189.373" y="409.257" width="38.1311" height="49.0736" stroke="#C4A145" stroke-width="4"/>
<rect x="244.767" y="386.622" width="38.1311" height="62.342" stroke="#C4A145" stroke-width="4"/>
<rect x="244.328" y="408.818" width="13.2635" height="3.12198" fill="#C4A145"/>
<rect x="244.328" y="408.818" width="13.2635" height="3.12198" fill="#C4A145"/>
<rect x="244.328" y="408.818" width="13.2635" height="3.12198" fill="#C4A145"/>
<rect x="244.328" y="408.818" width="13.2635" height="3.12198" fill="#C4A145"/>
<rect x="244.328" y="425.989" width="13.2635" height="3.12198" fill="#C4A145"/>
<rect x="244.328" y="425.989" width="13.2635" height="3.12198" fill="#C4A145"/>
<rect x="244.328" y="425.989" width="13.2635" height="3.12198" fill="#C4A145"/>
<rect x="244.328" y="425.989" width="13.2635" height="3.12198" fill="#C4A145"/>
<rect x="205.317" y="418.964" width="22.626" height="3.12198" fill="#C4A145"/>
<rect x="205.317" y="418.964" width="22.626" height="3.12198" fill="#C4A145"/>
<rect x="205.317" y="418.964" width="22.626" height="3.12198" fill="#C4A145"/>
<rect x="205.317" y="418.964" width="22.626" height="3.12198" fill="#C4A145"/>
<rect x="205.317" y="431.452" width="22.626" height="3.12198" fill="#C4A145"/>
<rect x="205.317" y="431.452" width="22.626" height="3.12198" fill="#C4A145"/>
<rect x="205.317" y="431.452" width="22.626" height="3.12198" fill="#C4A145"/>
<rect x="205.317" y="431.452" width="22.626" height="3.12198" fill="#C4A145"/>
</g>
<g clip-path="url(#clip2)">
<path fill-rule="evenodd" clip-rule="evenodd" d="M255.956 261.345C228.899 261.345 206.959 283.148 206.959 310.051C206.959 331.565 220.998 349.82 240.472 356.261C242.922 356.708 243.816 355.204 243.816 353.914C243.816 352.757 243.773 349.695 243.749 345.631C230.118 348.575 227.242 339.102 227.242 339.102C225.016 333.477 221.803 331.979 221.803 331.979C217.353 328.957 222.14 329.017 222.14 329.017C227.055 329.361 229.643 334.037 229.643 334.037C234.016 341.479 241.112 339.33 243.905 338.082C244.349 334.935 245.617 332.789 247.017 331.571C236.136 330.342 224.697 326.165 224.697 307.503C224.697 302.185 226.605 297.838 229.741 294.432C229.236 293.199 227.555 288.25 230.219 281.544C230.219 281.544 234.335 280.235 243.694 286.536C247.605 285.456 251.794 284.917 255.962 284.896C260.124 284.917 264.317 285.456 268.231 286.536C277.584 280.235 281.69 281.544 281.69 281.544C284.364 288.25 282.683 293.199 282.177 294.432C285.319 297.838 287.215 302.185 287.215 307.503C287.215 326.211 275.758 330.329 264.844 331.535C266.601 333.038 268.169 336.009 268.169 340.554C268.169 347.065 268.108 352.316 268.108 353.914C268.108 355.216 268.99 356.732 271.477 356.254C290.933 349.801 304.959 331.559 304.959 310.051C304.959 283.148 283.019 261.345 255.956 261.345Z" fill="white"/>
</g>
<defs>
<filter id="filter0_d" x="119" y="131.352" width="274.062" height="391.222" filterUnits="userSpaceOnUse" color-interpolation-filters="sRGB">
<feFlood flood-opacity="0" result="BackgroundImageFix"/>
<feColorMatrix in="SourceAlpha" type="matrix" values="0 0 0 0 0 0 0 0 0 0 0 0 0 0 0 0 0 0 127 0"/>
<feOffset dy="4"/>
<feGaussianBlur stdDeviation="10"/>
<feColorMatrix type="matrix" values="0 0 0 0 0 0 0 0 0 0 0 0 0 0 0 0 0 0 0.25 0"/>
<feBlend mode="normal" in2="BackgroundImageFix" result="effect1_dropShadow"/>
<feBlend mode="normal" in="SourceGraphic" in2="effect1_dropShadow" result="shape"/>
</filter>
<linearGradient id="paint0_linear" x1="66.4409" y1="449.403" x2="373.221" y2="-23.4723" gradientUnits="userSpaceOnUse">
<stop/>
<stop offset="1" stop-color="white"/>
</linearGradient>
<linearGradient id="paint1_linear" x1="279.697" y1="378.358" x2="214.15" y2="409.417" gradientUnits="userSpaceOnUse">
<stop stop-color="white"/>
<stop offset="1" stop-color="white" stop-opacity="0"/>
</linearGradient>
<linearGradient id="paint2_linear" x1="279.697" y1="378.358" x2="214.15" y2="409.417" gradientUnits="userSpaceOnUse">
<stop stop-color="white"/>
<stop offset="1" stop-color="white" stop-opacity="0"/>
</linearGradient>
<clipPath id="clip0">
<rect width="78.0205" height="32.8106" fill="white" transform="translate(217.021 177.011)"/>
</clipPath>
<clipPath id="clip1">
<rect width="42.1467" height="13.3046" fill="white" transform="translate(283.379 399.452) rotate(90)"/>
</clipPath>
<clipPath id="clip2">
<rect width="98" height="95" fill="white" transform="translate(206.959 261.345)"/>
</clipPath>
</defs>
</svg>
