<svg width="526" height="532" viewBox="0 0 526 532" fill="none" xmlns="http://www.w3.org/2000/svg">
<ellipse cx="262.667" cy="26.5361" rx="8.54831" ry="8.5361" fill="black" fill-opacity="0.2"/>
<ellipse rx="8.54688" ry="8.53753" transform="matrix(0.93985 -0.341589 0.342452 0.939535 174.956 41.98)" fill="#09D9B9"/>
<ellipse rx="8.54327" ry="8.54115" transform="matrix(0.766497 -0.642248 0.643327 0.765592 97.8248 86.4479)" fill="black" fill-opacity="0.2"/>
<ellipse rx="8.54327" ry="8.54115" transform="matrix(0.766497 -0.642248 0.643327 0.765592 427.509 478.79)" fill="#09D9B9"/>
<ellipse rx="8.53915" ry="8.54526" transform="matrix(0.500536 -0.865716 0.866335 0.499464 40.5749 154.578)" fill="#09D9B9"/>
<ellipse rx="8.53915" ry="8.54526" transform="matrix(0.500536 -0.865716 0.866335 0.499464 484.758 410.661)" fill="black" fill-opacity="0.2"/>
<ellipse cx="10.1108" cy="238.153" rx="8.53647" ry="8.54794" transform="rotate(-80 10.1108 238.153)" fill="black" fill-opacity="0.2"/>
<ellipse rx="8.53647" ry="8.54794" transform="matrix(0.173889 -0.984765 0.98485 0.173408 515.22 327.087)" fill="#09D9B9"/>
<ellipse rx="8.53647" ry="8.54794" transform="matrix(-0.173889 -0.984765 0.98485 -0.173408 10.1131 327.087)" fill="#09D9B9"/>
<ellipse opacity="0.2" rx="8.53647" ry="8.54794" transform="matrix(-0.173889 -0.984765 0.98485 -0.173408 515.22 238.151)" fill="#0E1C36"/>
<ellipse rx="8.53915" ry="8.54526" transform="matrix(-0.500536 -0.865716 0.866335 -0.499464 40.5747 410.66)" fill="black" fill-opacity="0.2"/>
<ellipse rx="8.53915" ry="8.54526" transform="matrix(-0.500536 -0.865716 0.866335 -0.499464 484.758 154.578)" fill="#09D9B9"/>
<ellipse rx="8.54327" ry="8.54115" transform="matrix(-0.766497 -0.642248 0.643327 -0.765592 97.8241 478.79)" fill="#09D9B9"/>
<ellipse rx="8.54327" ry="8.54115" transform="matrix(-0.766497 -0.642248 0.643327 -0.765592 427.509 86.4482)" fill="black" fill-opacity="0.2"/>
<ellipse rx="8.54688" ry="8.53753" transform="matrix(-0.93985 -0.341589 0.342452 -0.939535 350.377 41.9796)" fill="#09D9B9"/>
<g filter="url(#filter0_d)">
<g filter="url(#filter1_d)">
<rect x="147.583" y="86.6404" width="234.396" height="351.092" rx="10" fill="black"/>
<rect x="147.583" y="86.6404" width="234.396" height="351.092" rx="10" fill="url(#paint0_linear)" fill-opacity="0.5"/>
</g>
<g clip-path="url(#clip0)">
<path d="M238.516 144.171L235.191 139.372L234.193 140.53V144.171H231.201V127.375H234.193V136.807H234.36L238.017 132.505H241.508L237.186 137.469L241.757 144.171H238.516Z" fill="white"/>
<path d="M246.911 144.335C245.748 144.335 244.75 144.087 243.919 143.591C243.088 143.094 242.423 142.432 241.924 141.522C241.425 140.612 241.259 139.619 241.259 138.378C241.259 137.22 241.508 136.144 241.924 135.234C242.34 134.324 243.005 133.58 243.836 133.083C244.667 132.587 245.664 132.256 246.828 132.256C247.825 132.256 248.74 132.504 249.488 132.918C250.319 133.331 250.901 133.993 251.4 134.821C251.898 135.648 252.065 136.724 252.065 137.965V139.206H244.168C244.251 140.033 244.584 140.778 244.999 141.274C245.498 141.77 246.08 142.019 246.994 142.019C247.659 142.019 248.241 141.853 248.574 141.522C248.906 141.191 249.155 140.86 249.322 140.364L251.981 141.109C251.815 141.605 251.566 142.184 251.15 142.681C250.735 143.177 250.236 143.591 249.488 143.922C248.74 144.17 247.909 144.335 246.911 144.335ZM246.745 134.738C246.08 134.738 245.498 134.986 245.083 135.4C244.667 135.813 244.334 136.393 244.168 137.22H249.239C249.239 136.558 248.989 135.979 248.574 135.483C248.075 134.986 247.493 134.738 246.745 134.738Z" fill="white"/>
<path d="M256.137 144.666L256.386 144.087L252.147 132.504H255.223L257.799 140.198H257.966L260.542 132.504H263.618L258.63 145.907C258.464 146.321 258.215 146.817 257.882 147.231C257.55 147.645 257.134 148.058 256.636 148.307C256.137 148.555 255.472 148.72 254.724 148.72C254.391 148.72 254.142 148.72 253.81 148.638C253.477 148.555 253.311 148.472 253.061 148.389L253.726 146.073C254.474 146.238 254.973 146.238 255.306 145.99C255.555 145.824 255.888 145.328 256.137 144.666Z" fill="white"/>
<path d="M274.008 136.227L271.265 136.641C271.099 136.062 270.849 135.648 270.517 135.317C270.184 134.986 269.685 134.821 269.021 134.821C268.106 134.821 267.524 135.151 267.026 135.813C266.61 136.475 266.361 137.303 266.361 138.378C266.361 139.454 266.61 140.364 267.026 141.026C267.441 141.688 268.106 142.019 269.021 142.019C269.602 142.019 270.101 141.853 270.434 141.522C270.766 141.191 271.099 140.778 271.182 140.281L273.925 140.695C273.675 141.77 273.093 142.681 272.262 143.425C271.348 144.087 270.267 144.501 268.937 144.501C267.774 144.501 266.859 144.252 266.028 143.756C265.197 143.26 264.615 142.515 264.116 141.605C263.701 140.695 263.452 139.619 263.452 138.461C263.452 137.303 263.701 136.227 264.116 135.317C264.532 134.407 265.197 133.745 266.028 133.249C266.859 132.752 267.774 132.504 268.937 132.504C270.267 132.504 271.348 132.835 272.262 133.58C273.26 134.076 273.841 135.069 274.008 136.227Z" fill="white"/>
<path d="M281.738 144.17V142.846H281.572C281.405 143.177 281.073 143.591 280.574 143.922C280.076 144.252 279.411 144.418 278.579 144.418C277.914 144.418 277.25 144.252 276.668 144.004C276.086 143.756 275.67 143.342 275.255 142.846C274.922 142.35 274.756 141.688 274.756 140.943C274.756 139.785 275.171 138.957 276.003 138.378C276.834 137.799 277.997 137.468 279.494 137.303C279.826 137.303 280.159 137.22 280.491 137.22C280.824 137.22 281.073 137.137 281.322 137.054C281.489 136.972 281.655 136.806 281.655 136.641V136.475C281.655 135.979 281.489 135.565 281.156 135.234C280.824 134.986 280.408 134.821 279.909 134.821C279.327 134.821 278.912 134.986 278.496 135.234C278.081 135.482 277.914 135.813 277.748 136.227L275.005 135.813C275.255 134.738 275.836 133.91 276.751 133.331C277.665 132.752 278.746 132.504 279.992 132.504C280.741 132.504 281.489 132.669 282.237 132.918C282.902 133.166 283.483 133.58 283.982 134.159C284.398 134.738 284.647 135.565 284.647 136.475V144.335H281.738V144.17ZM281.572 140.281V138.709C281.489 138.792 281.322 138.875 281.156 138.957C280.907 139.04 280.657 139.04 280.408 139.123C280.159 139.206 279.909 139.206 279.743 139.206C279.078 139.288 278.496 139.454 278.164 139.702C277.831 139.95 277.665 140.364 277.665 140.86C277.665 141.274 277.831 141.605 278.081 141.853C278.413 142.101 278.746 142.184 279.244 142.184C279.909 142.184 280.408 142.019 280.907 141.605C281.405 141.191 281.572 140.778 281.572 140.281Z" fill="white"/>
<path d="M293.624 132.753L292.709 135.318C292.626 135.235 292.46 135.235 292.294 135.152C292.127 135.069 291.878 135.069 291.629 135.069C291.13 135.069 290.714 135.152 290.382 135.4C290.049 135.649 289.717 135.98 289.551 136.31C289.384 136.724 289.218 137.138 289.218 137.552V144.17H286.226V132.505H289.135V134.159H289.301C289.468 133.58 289.8 133.084 290.299 132.836C290.798 132.505 291.379 132.339 291.961 132.339C292.294 132.339 292.543 132.339 292.876 132.422C293.208 132.505 293.457 132.587 293.624 132.753Z" fill="white"/>
<path d="M303.848 144.17H300.939V142.764H300.772C300.606 143.178 300.274 143.509 299.775 143.839C299.276 144.17 298.695 144.336 297.863 144.336C296.949 144.336 296.201 144.088 295.536 143.674C294.871 143.178 294.289 142.516 293.874 141.606C293.458 140.695 293.292 139.62 293.292 138.296C293.292 136.972 293.541 135.897 293.957 134.987C294.372 134.077 294.954 133.415 295.619 133.001C296.367 132.587 297.115 132.339 297.946 132.339C298.695 132.339 299.359 132.505 299.858 132.836C300.357 133.166 300.689 133.497 300.856 133.911H300.939V128.616H303.848V144.17ZM296.035 138.296C296.035 139.372 296.284 140.282 296.7 140.944C297.115 141.606 297.78 141.937 298.695 141.937C299.276 141.937 299.775 141.771 300.191 141.44C300.523 141.109 300.856 140.695 301.022 140.116C301.188 139.537 301.271 138.958 301.271 138.296C301.271 137.303 301.105 136.393 300.689 135.731C300.274 135.069 299.692 134.738 298.778 134.738C297.863 134.738 297.281 135.069 296.783 135.731C296.284 136.393 296.035 137.22 296.035 138.296Z" fill="white"/>
<path d="M232.614 130.105C228.791 130.105 225.715 126.961 225.715 123.155C225.715 119.349 228.791 116.288 232.614 116.288C236.438 116.288 239.513 119.349 239.513 123.155C239.596 126.961 236.438 130.105 232.614 130.105ZM232.614 119.018C230.287 119.018 228.458 120.921 228.458 123.155C228.458 125.472 230.37 127.292 232.614 127.292C234.942 127.292 236.77 125.389 236.77 123.155C236.853 120.921 234.942 119.018 232.614 119.018Z" fill="white"/>
</g>
<g clip-path="url(#clip1)">
<path d="M281.985 351.637C281.654 351.308 281.206 351.123 280.74 351.124C280.273 351.125 279.825 351.31 279.496 351.641C279.166 351.971 278.981 352.418 278.982 352.884C278.983 353.35 279.169 353.797 279.499 354.126C280.234 354.86 280.817 355.731 281.215 356.689C281.612 357.648 281.817 358.675 281.817 359.713C281.817 360.751 281.612 361.778 281.215 362.737C280.817 363.695 280.234 364.566 279.499 365.3C279.336 365.463 279.206 365.656 279.117 365.869C279.028 366.083 278.983 366.311 278.982 366.542C278.982 366.772 279.028 367.001 279.116 367.214C279.204 367.428 279.333 367.621 279.497 367.785C279.66 367.948 279.854 368.078 280.067 368.166C280.28 368.255 280.509 368.3 280.74 368.301C280.971 368.301 281.2 368.256 281.414 368.168C281.627 368.08 281.821 367.95 281.985 367.787C283.046 366.728 283.888 365.47 284.462 364.085C285.037 362.701 285.332 361.217 285.332 359.718C285.332 358.22 285.037 356.736 284.462 355.351C283.888 353.967 283.046 352.709 281.985 351.649L281.985 351.637Z" fill="white" fill-opacity="0.5"/>
<path d="M284.785 350.408C287.254 352.877 288.641 356.223 288.641 359.712C288.641 363.201 287.254 366.548 284.785 369.016C284.617 369.178 284.484 369.372 284.391 369.586C284.299 369.8 284.251 370.031 284.249 370.264C284.247 370.497 284.291 370.728 284.38 370.944C284.468 371.159 284.599 371.355 284.764 371.52C284.929 371.685 285.125 371.815 285.341 371.904C285.557 371.992 285.789 372.036 286.022 372.034C286.255 372.032 286.486 371.984 286.701 371.892C286.915 371.8 287.109 371.666 287.271 371.499C290.403 368.371 292.163 364.129 292.163 359.706C292.163 355.283 290.403 351.041 287.271 347.914C286.94 347.585 286.491 347.4 286.024 347.402C285.793 347.402 285.564 347.448 285.35 347.537C285.136 347.626 284.942 347.756 284.779 347.92C284.616 348.084 284.487 348.278 284.399 348.492C284.311 348.706 284.266 348.934 284.266 349.166C284.267 349.632 284.454 350.079 284.785 350.408Z" fill="white" fill-opacity="0.5"/>
</g>
<rect x="218.684" y="333.966" width="46.8793" height="49.2129" rx="5" fill="#EEC458"/>
<rect x="218.684" y="333.966" width="46.8793" height="49.2129" rx="5" fill="url(#paint1_linear)" fill-opacity="0.6"/>
<mask id="mask0" mask-type="alpha" maskUnits="userSpaceOnUse" x="218" y="333" width="48" height="51">
<rect x="218.684" y="333.966" width="46.8793" height="49.2129" rx="5" fill="#EEC458"/>
<rect x="218.684" y="333.966" width="46.8793" height="49.2129" rx="5" fill="url(#paint2_linear)" fill-opacity="0.6"/>
</mask>
<g mask="url(#mask0)">
<rect x="198.025" y="348.449" width="38.1914" height="49.054" stroke="#C4A145" stroke-width="4"/>
<rect x="253.499" y="325.823" width="38.1914" height="62.3175" stroke="#C4A145" stroke-width="4"/>
<rect x="253.062" y="348.009" width="13.2825" height="3.12082" fill="#C4A145"/>
<rect x="253.062" y="348.009" width="13.2825" height="3.12082" fill="#C4A145"/>
<rect x="253.062" y="348.009" width="13.2825" height="3.12082" fill="#C4A145"/>
<rect x="253.062" y="348.009" width="13.2825" height="3.12082" fill="#C4A145"/>
<rect x="253.062" y="365.174" width="13.2825" height="3.12082" fill="#C4A145"/>
<rect x="253.062" y="365.174" width="13.2825" height="3.12082" fill="#C4A145"/>
<rect x="253.062" y="365.174" width="13.2825" height="3.12082" fill="#C4A145"/>
<rect x="253.062" y="365.174" width="13.2825" height="3.12082" fill="#C4A145"/>
<rect x="213.996" y="358.152" width="22.6583" height="3.12082" fill="#C4A145"/>
<rect x="213.996" y="358.152" width="22.6583" height="3.12082" fill="#C4A145"/>
<rect x="213.996" y="358.152" width="22.6583" height="3.12082" fill="#C4A145"/>
<rect x="213.996" y="358.152" width="22.6583" height="3.12082" fill="#C4A145"/>
<rect x="213.996" y="370.635" width="22.6583" height="3.12082" fill="#C4A145"/>
<rect x="213.996" y="370.635" width="22.6583" height="3.12082" fill="#C4A145"/>
<rect x="213.996" y="370.635" width="22.6583" height="3.12082" fill="#C4A145"/>
<rect x="213.996" y="370.635" width="22.6583" height="3.12082" fill="#C4A145"/>
</g>
</g>
<defs>
<filter id="filter0_d" x="57.5833" y="0.640381" width="414.396" height="531.092" filterUnits="userSpaceOnUse" color-interpolation-filters="sRGB">
<feFlood flood-opacity="0" result="BackgroundImageFix"/>
<feColorMatrix in="SourceAlpha" type="matrix" values="0 0 0 0 0 0 0 0 0 0 0 0 0 0 0 0 0 0 127 0"/>
<feOffset dy="4"/>
<feGaussianBlur stdDeviation="45"/>
<feColorMatrix type="matrix" values="0 0 0 0 0 0 0 0 0 0 0 0 0 0 0 0 0 0 0.2 0"/>
<feBlend mode="normal" in2="BackgroundImageFix" result="effect1_dropShadow"/>
<feBlend mode="normal" in="SourceGraphic" in2="effect1_dropShadow" result="shape"/>
</filter>
<filter id="filter1_d" x="127.583" y="70.6404" width="274.396" height="391.092" filterUnits="userSpaceOnUse" color-interpolation-filters="sRGB">
<feFlood flood-opacity="0" result="BackgroundImageFix"/>
<feColorMatrix in="SourceAlpha" type="matrix" values="0 0 0 0 0 0 0 0 0 0 0 0 0 0 0 0 0 0 127 0"/>
<feOffset dy="4"/>
<feGaussianBlur stdDeviation="10"/>
<feColorMatrix type="matrix" values="0 0 0 0 0 0 0 0 0 0 0 0 0 0 0 0 0 0 0.25 0"/>
<feBlend mode="normal" in2="BackgroundImageFix" result="effect1_dropShadow"/>
<feBlend mode="normal" in="SourceGraphic" in2="effect1_dropShadow" result="shape"/>
</filter>
<linearGradient id="paint0_linear" x1="74.9204" y1="388.58" x2="381.362" y2="-84.6246" gradientUnits="userSpaceOnUse">
<stop/>
<stop offset="1" stop-color="white"/>
</linearGradient>
<linearGradient id="paint1_linear" x1="288.482" y1="317.561" x2="222.884" y2="348.7" gradientUnits="userSpaceOnUse">
<stop stop-color="white"/>
<stop offset="1" stop-color="white" stop-opacity="0"/>
</linearGradient>
<linearGradient id="paint2_linear" x1="288.482" y1="317.561" x2="222.884" y2="348.7" gradientUnits="userSpaceOnUse">
<stop stop-color="white"/>
<stop offset="1" stop-color="white" stop-opacity="0"/>
</linearGradient>
<clipPath id="clip0">
<rect width="78.1321" height="32.7984" fill="white" transform="translate(225.715 116.288)"/>
</clipPath>
<clipPath id="clip1">
<rect width="42.1311" height="13.3236" fill="white" transform="translate(292.169 338.647) rotate(90)"/>
</clipPath>
</defs>
</svg>
