<svg width="235" height="352" fill="none" xmlns="http://www.w3.org/2000/svg"><rect width="234.062" height="351.092" rx="10" fill="#09D9B9"/><rect width="234.062" height="351.092" rx="10" fill="url(#paint0_linear)" fill-opacity=".5"/><g clip-path="url(#clip0)" fill="#fff"><path d="M90.802 57.53l-3.32-4.799-.996 1.159v3.64h-2.988V40.735h2.988v9.432h.166l3.653-4.303h3.485l-4.316 4.965 4.566 6.701h-3.238z"/><path d="M99.186 57.695c-1.162 0-2.158-.248-2.988-.745a5.322 5.322 0 0 1-1.992-2.068c-.498-.91-.664-1.903-.664-3.144 0-1.158.249-2.234.664-3.144a4.822 4.822 0 0 1 1.909-2.151 5.746 5.746 0 0 1 2.988-.827c.996 0 1.909.248 2.656.662.83.413 1.411 1.075 1.909 1.903.498.827.664 1.902.664 3.144v1.24h-7.885c.083.828.415 1.573.83 2.069.498.496 1.08.745 1.992.745.664 0 1.245-.166 1.577-.497.332-.33.581-.662.747-1.158l2.656.744c-.166.497-.415 1.076-.83 1.572-.415.497-.913.91-1.66 1.242a7.98 7.98 0 0 1-2.573.413zm-.166-9.597c-.664 0-1.245.248-1.66.662-.415.413-.747.992-.913 1.82h5.063c0-.662-.249-1.241-.664-1.738-.498-.496-1.079-.744-1.826-.744zm9.379 9.928l.249-.58-4.234-11.582h3.071l2.574 7.694h.166l2.573-7.694h3.071l-4.981 13.403c-.166.414-.415.91-.746 1.324-.332.413-.747.827-1.245 1.075-.498.249-1.163.414-1.91.414-.332 0-.581 0-.912-.083-.332-.082-.498-.165-.747-.248l.664-2.317c.746.166 1.244.166 1.576-.082.249-.166.582-.662.831-1.324zm17.845-8.439l-2.739.413c-.166-.579-.415-.992-.747-1.323-.332-.331-.83-.497-1.494-.497-.913 0-1.494.331-1.992.993-.415.662-.664 1.49-.664 2.565 0 1.076.249 1.986.664 2.648.415.661 1.079.992 1.992.992.581 0 1.079-.165 1.411-.496.332-.33.664-.745.747-1.241l2.739.414c-.249 1.075-.83 1.985-1.66 2.73a5.492 5.492 0 0 1-3.32 1.076c-1.162 0-2.075-.249-2.905-.745-.83-.496-1.411-1.241-1.909-2.151a7.601 7.601 0 0 1-.664-3.144c0-1.158.249-2.234.664-3.144.415-.91 1.079-1.572 1.909-2.069.83-.496 1.743-.744 2.905-.744 1.328 0 2.407.33 3.32 1.075.996.497 1.577 1.49 1.743 2.648zm7.719 7.943v-1.324h-.166c-.166.33-.498.744-.996 1.075-.498.331-1.162.497-1.992.497a4.939 4.939 0 0 1-1.909-.414c-.581-.248-.996-.662-1.411-1.158-.332-.497-.498-1.159-.498-1.903 0-1.158.415-1.986 1.245-2.565.83-.58 1.992-.91 3.486-1.075.332 0 .664-.083.996-.083.332 0 .581-.083.83-.166.166-.083.332-.248.332-.413v-.166c0-.496-.166-.91-.498-1.24a2.042 2.042 0 0 0-1.245-.415c-.581 0-.996.166-1.411.414-.415.248-.581.58-.747.993l-2.739-.414c.249-1.075.83-1.903 1.743-2.482.913-.579 1.992-.827 3.237-.827.747 0 1.494.165 2.241.414a4.237 4.237 0 0 1 1.743 1.24c.415.58.664 1.407.664 2.317v7.86h-2.905v-.165zm-.166-3.889v-1.572c-.083.083-.249.165-.415.248-.249.083-.498.083-.747.166a2.086 2.086 0 0 1-.664.082c-.664.083-1.245.249-1.577.497-.332.248-.498.662-.498 1.158 0 .414.166.745.415.993.332.248.664.33 1.162.33.664 0 1.162-.164 1.66-.578.498-.414.664-.828.664-1.324zm12.035-7.529l-.913 2.565c-.083-.082-.249-.082-.415-.165-.166-.083-.415-.083-.664-.083-.498 0-.913.083-1.245.331-.332.248-.664.58-.83.91-.166.414-.332.828-.332 1.241v6.62h-2.988V45.863h2.905v1.655h.166c.166-.58.498-1.076.996-1.324a3 3 0 0 1 1.66-.496c.332 0 .581 0 .913.083.332.082.581.165.747.33zm10.209 11.418h-2.905v-1.407h-.166c-.166.414-.498.745-.996 1.076-.498.331-1.079.497-1.909.497-.913 0-1.66-.249-2.324-.662a5.248 5.248 0 0 1-1.66-2.069c-.415-.91-.581-1.986-.581-3.31 0-1.323.249-2.399.664-3.309.415-.91.996-1.572 1.66-1.985.747-.414 1.494-.662 2.324-.662.747 0 1.411.165 1.909.496.498.331.83.662.996 1.076h.083v-5.295h2.905V57.53zm-7.802-5.874c0 1.075.249 1.985.664 2.647.415.662 1.079.993 1.992.993.581 0 1.079-.165 1.494-.496.332-.331.664-.745.83-1.324.166-.58.249-1.158.249-1.82 0-.993-.166-1.903-.581-2.565-.415-.662-.996-.993-1.909-.993s-1.494.331-1.992.993c-.498.662-.747 1.49-.747 2.565zM84.91 43.465c-3.818 0-6.89-3.144-6.89-6.95a6.861 6.861 0 0 1 6.89-6.867 6.861 6.861 0 0 1 6.889 6.867c.083 3.806-3.071 6.95-6.89 6.95zm0-11.087a4.155 4.155 0 0 0-4.15 4.137c0 2.316 1.909 4.137 4.15 4.137a4.155 4.155 0 0 0 4.15-4.137c.083-2.234-1.826-4.137-4.15-4.137z"/></g><g clip-path="url(#clip1)" fill="#0E1C36"><path opacity=".3" d="M134.21 264.997a1.758 1.758 0 0 0-2.483 2.489 7.904 7.904 0 0 1 0 11.173 1.755 1.755 0 0 0-.382 1.915 1.752 1.752 0 0 0 1.622 1.086 1.767 1.767 0 0 0 1.243-.513 11.42 11.42 0 0 0 2.474-12.436 11.44 11.44 0 0 0-2.474-3.702v-.012z"/><path opacity=".3" d="M137.006 263.768a13.165 13.165 0 0 1 0 18.608 1.752 1.752 0 0 0 1.235 3.018 1.761 1.761 0 0 0 1.247-.536 16.674 16.674 0 0 0 0-23.585 1.758 1.758 0 0 0-3 1.252c.001.467.187.914.518 1.243z"/></g><rect x="70.999" y="247.325" width="46.812" height="49.213" rx="5" fill="#EEC458"/><rect x="70.999" y="247.325" width="46.812" height="49.213" rx="5" fill="url(#paint1_linear)" fill-opacity=".6"/><mask id="a" maskUnits="userSpaceOnUse" x="70" y="247" width="48" height="50"><rect x="70.999" y="247.325" width="46.812" height="49.213" rx="5" fill="#EEC458"/><rect x="70.999" y="247.325" width="46.812" height="49.213" rx="5" fill="url(#paint2_linear)" fill-opacity=".6"/></mask><g mask="url(#a)"><path stroke="#C4A145" stroke-width="4" d="M50.373 261.808h38.131v49.054H50.373zm55.394-22.626h38.131V301.5h-38.131z"/><path fill="#C4A145" d="M105.328 261.369h13.264v3.121h-13.264z"/><path fill="#C4A145" d="M105.328 261.369h13.264v3.121h-13.264z"/><path fill="#C4A145" d="M105.328 261.369h13.264v3.121h-13.264z"/><path fill="#C4A145" d="M105.328 261.369h13.264v3.121h-13.264zm0 17.164h13.264v3.121h-13.264z"/><path fill="#C4A145" d="M105.328 278.533h13.264v3.121h-13.264z"/><path fill="#C4A145" d="M105.328 278.533h13.264v3.121h-13.264z"/><path fill="#C4A145" d="M105.328 278.533h13.264v3.121h-13.264zm-39.011-7.022h22.626v3.121H66.317z"/><path fill="#C4A145" d="M66.317 271.511h22.626v3.121H66.317z"/><path fill="#C4A145" d="M66.317 271.511h22.626v3.121H66.317z"/><path fill="#C4A145" d="M66.317 271.511h22.626v3.121H66.317zm0 12.484h22.626v3.121H66.317z"/><path fill="#C4A145" d="M66.317 283.995h22.626v3.121H66.317z"/><path fill="#C4A145" d="M66.317 283.995h22.626v3.121H66.317z"/><path fill="#C4A145" d="M66.317 283.995h22.626v3.121H66.317z"/></g><defs><linearGradient id="paint0_linear" x1="-72.559" y1="301.939" x2="234.062" y2="-170.865" gradientUnits="userSpaceOnUse"><stop stop-color="#09D9B9"/><stop offset="1" stop-color="#fff"/></linearGradient><linearGradient id="paint1_linear" x1="140.697" y1="230.921" x2="75.159" y2="261.987" gradientUnits="userSpaceOnUse"><stop stop-color="#fff"/><stop offset="1" stop-color="#fff" stop-opacity="0"/></linearGradient><linearGradient id="paint2_linear" x1="140.697" y1="230.921" x2="75.159" y2="261.987" gradientUnits="userSpaceOnUse"><stop stop-color="#fff"/><stop offset="1" stop-color="#fff" stop-opacity="0"/></linearGradient><clipPath id="clip0"><path fill="#fff" transform="translate(78.02 29.648)" d="M0 0h78.02v32.798H0z"/></clipPath><clipPath id="clip1"><path fill="#fff" transform="rotate(90 -53.814 198.193)" d="M0 0h42.131v13.305H0z"/></clipPath></defs></svg>