<svg width="235" height="352" fill="none" xmlns="http://www.w3.org/2000/svg"><rect x=".491" y=".568" width="234.062" height="351.092" rx="10" fill="#EEF0F8"/><rect x=".491" y=".568" width="234.062" height="351.092" rx="10" fill="url(#paint0_linear)" fill-opacity=".1"/><g clip-path="url(#clip0)" fill="#09D9B9"><path d="M91.293 58.098l-3.32-4.798-.996 1.158v3.64H83.99V41.303h2.988v9.432h.166l3.652-4.303h3.486l-4.316 4.965 4.565 6.701h-3.237z"/><path d="M99.677 58.263c-1.162 0-2.158-.248-2.988-.744a5.322 5.322 0 0 1-1.992-2.069c-.498-.91-.664-1.903-.664-3.144 0-1.158.249-2.234.664-3.144a4.821 4.821 0 0 1 1.909-2.151 5.746 5.746 0 0 1 2.988-.827c.996 0 1.909.248 2.656.662.83.413 1.411 1.075 1.909 1.902.498.828.664 1.903.664 3.144v1.241h-7.885c.083.828.415 1.572.83 2.069.498.496 1.079.745 1.992.745.664 0 1.245-.166 1.577-.497.332-.33.581-.662.747-1.158l2.656.744c-.166.497-.415 1.076-.83 1.572-.415.497-.913.91-1.66 1.241a7.981 7.981 0 0 1-2.573.414zm-.166-9.597c-.664 0-1.245.248-1.66.662-.415.413-.747.992-.913 1.82H102c0-.662-.249-1.241-.664-1.738-.498-.496-1.079-.744-1.826-.744zm9.378 9.928l.249-.58-4.233-11.582h3.071l2.573 7.694h.166l2.573-7.694h3.071l-4.98 13.403c-.166.414-.415.91-.747 1.324-.332.413-.747.827-1.245 1.075-.498.248-1.162.414-1.909.414-.332 0-.581 0-.913-.083-.332-.082-.498-.165-.747-.248l.664-2.317c.747.166 1.245.166 1.577-.082.249-.166.581-.662.83-1.324zm17.845-8.439l-2.739.413c-.166-.579-.415-.992-.747-1.323-.332-.331-.83-.497-1.494-.497-.913 0-1.494.331-1.992.993-.415.662-.664 1.49-.664 2.565 0 1.076.249 1.986.664 2.648.415.661 1.079.992 1.992.992.581 0 1.079-.165 1.411-.496.332-.331.664-.745.747-1.241l2.739.414c-.249 1.075-.83 1.985-1.66 2.73a5.493 5.493 0 0 1-3.32 1.075c-1.162 0-2.075-.248-2.905-.744-.83-.497-1.411-1.241-1.909-2.151a7.601 7.601 0 0 1-.664-3.144 7.6 7.6 0 0 1 .664-3.144c.415-.91 1.079-1.572 1.909-2.069.83-.496 1.743-.744 2.905-.744 1.328 0 2.407.33 3.32 1.075.996.497 1.577 1.49 1.743 2.648zm7.72 7.942v-1.323h-.166c-.166.33-.498.744-.996 1.075-.498.331-1.162.497-1.992.497a4.939 4.939 0 0 1-1.909-.414c-.581-.248-.996-.662-1.411-1.158-.332-.497-.498-1.159-.498-1.903 0-1.159.415-1.986 1.245-2.565.83-.58 1.992-.91 3.486-1.076.332 0 .664-.082.996-.082.332 0 .581-.083.83-.166.166-.083.332-.248.332-.413v-.166c0-.496-.166-.91-.498-1.241a2.042 2.042 0 0 0-1.245-.414c-.581 0-.996.166-1.411.414-.415.248-.581.58-.747.993l-2.739-.414c.249-1.075.83-1.903 1.743-2.482.913-.58 1.992-.827 3.237-.827.747 0 1.494.165 2.241.413a4.237 4.237 0 0 1 1.743 1.241c.415.58.664 1.407.664 2.317v7.86h-2.905v-.166zm-.166-3.888v-1.572c-.083.083-.249.165-.415.248-.249.083-.498.083-.747.166a2.086 2.086 0 0 1-.664.082c-.664.083-1.245.248-1.577.497-.332.248-.498.662-.498 1.158 0 .414.166.745.415.993.332.248.664.33 1.162.33.664 0 1.162-.165 1.66-.578.498-.414.664-.828.664-1.324zm12.034-7.529l-.913 2.565c-.083-.082-.249-.082-.415-.165-.166-.083-.415-.083-.664-.083-.498 0-.913.083-1.245.33-.332.25-.664.58-.83.911-.166.414-.332.827-.332 1.241v6.619h-2.988V46.432h2.905v1.655h.166c.166-.58.498-1.076.996-1.324a3 3 0 0 1 1.66-.496c.332 0 .581 0 .913.082.332.083.581.166.747.331zm10.21 11.418h-2.905V56.69h-.166c-.166.414-.498.745-.996 1.076-.498.33-1.079.496-1.909.496-.913 0-1.66-.248-2.324-.661a5.25 5.25 0 0 1-1.66-2.069c-.415-.91-.581-1.986-.581-3.31 0-1.323.249-2.399.664-3.309.415-.91.996-1.572 1.66-1.986.747-.413 1.494-.661 2.324-.661.747 0 1.411.165 1.909.496.498.331.83.662.996 1.076h.083v-5.295h2.905v15.554zm-7.802-5.874c0 1.075.249 1.985.664 2.647.415.662 1.079.993 1.992.993.581 0 1.079-.165 1.494-.496.332-.331.664-.745.83-1.324.166-.58.249-1.158.249-1.82 0-.993-.166-1.903-.581-2.565-.415-.662-.996-.993-1.909-.993s-1.494.33-1.992.993c-.498.662-.747 1.489-.747 2.565zM85.4 44.033c-3.818 0-6.889-3.144-6.889-6.95a6.861 6.861 0 0 1 6.89-6.867 6.861 6.861 0 0 1 6.888 6.867c.083 3.806-3.07 6.95-6.889 6.95zm0-11.087a4.155 4.155 0 0 0-4.15 4.137c0 2.317 1.91 4.137 4.15 4.137a4.155 4.155 0 0 0 4.15-4.137c.083-2.234-1.826-4.137-4.15-4.137z"/></g><g clip-path="url(#clip1)" fill="#0E1C36"><path opacity=".3" d="M134.7 265.565a1.754 1.754 0 0 0-2.998 1.247c0 .466.186.913.516 1.242a7.905 7.905 0 0 1 1.713 8.61 7.883 7.883 0 0 1-1.713 2.563 1.755 1.755 0 0 0-.516 1.242 1.763 1.763 0 0 0 .513 1.243 1.758 1.758 0 0 0 2.485.003 11.408 11.408 0 0 0 0-16.138v-.012z"/><path opacity=".3" d="M137.497 264.336a13.167 13.167 0 0 1 0 18.608 1.745 1.745 0 0 0-.536 1.247 1.748 1.748 0 0 0 1.771 1.771 1.752 1.752 0 0 0 1.247-.536 16.679 16.679 0 0 0 0-23.585 1.761 1.761 0 0 0-3.001 1.252c.001.467.188.914.519 1.243z"/></g><rect x="71.489" y="247.893" width="46.812" height="49.213" rx="5" fill="#EEC458"/><rect x="71.489" y="247.893" width="46.812" height="49.213" rx="5" fill="url(#paint1_linear)" fill-opacity=".6"/><mask id="a" maskUnits="userSpaceOnUse" x="71" y="247" width="48" height="51"><rect x="71.489" y="247.893" width="46.812" height="49.213" rx="5" fill="#EEC458"/><rect x="71.489" y="247.893" width="46.812" height="49.213" rx="5" fill="url(#paint2_linear)" fill-opacity=".6"/></mask><g mask="url(#a)"><path stroke="#C4A145" stroke-width="4" d="M50.863 262.376h38.131v49.054H50.863zm55.395-22.626h38.131v62.318h-38.131z"/><path fill="#C4A145" d="M105.818 261.937h13.264v3.121h-13.264z"/><path fill="#C4A145" d="M105.818 261.937h13.264v3.121h-13.264z"/><path fill="#C4A145" d="M105.818 261.937h13.264v3.121h-13.264z"/><path fill="#C4A145" d="M105.818 261.937h13.264v3.121h-13.264zm0 17.164h13.264v3.121h-13.264z"/><path fill="#C4A145" d="M105.818 279.101h13.264v3.121h-13.264z"/><path fill="#C4A145" d="M105.818 279.101h13.264v3.121h-13.264z"/><path fill="#C4A145" d="M105.818 279.101h13.264v3.121h-13.264zm-39.01-7.022h22.626v3.121H66.808z"/><path fill="#C4A145" d="M66.808 272.079h22.626v3.121H66.808z"/><path fill="#C4A145" d="M66.808 272.079h22.626v3.121H66.808z"/><path fill="#C4A145" d="M66.808 272.079h22.626v3.121H66.808zm0 12.484h22.626v3.121H66.808z"/><path fill="#C4A145" d="M66.808 284.563h22.626v3.121H66.808z"/><path fill="#C4A145" d="M66.808 284.563h22.626v3.121H66.808z"/><path fill="#C4A145" d="M66.808 284.563h22.626v3.121H66.808z"/></g><defs><linearGradient id="paint0_linear" x1="138.018" y1="101.748" x2="-36.305" y2="284.058" gradientUnits="userSpaceOnUse"><stop stop-color="#fff"/><stop offset="1" stop-color="#fff" stop-opacity="0"/></linearGradient><linearGradient id="paint1_linear" x1="141.188" y1="231.489" x2="75.649" y2="262.554" gradientUnits="userSpaceOnUse"><stop stop-color="#fff"/><stop offset="1" stop-color="#fff" stop-opacity="0"/></linearGradient><linearGradient id="paint2_linear" x1="141.188" y1="231.489" x2="75.649" y2="262.554" gradientUnits="userSpaceOnUse"><stop stop-color="#fff"/><stop offset="1" stop-color="#fff" stop-opacity="0"/></linearGradient><clipPath id="clip0"><path fill="#fff" transform="translate(78.511 30.216)" d="M0 0h78.02v32.798H0z"/></clipPath><clipPath id="clip1"><path fill="#fff" transform="rotate(90 -53.852 198.722)" d="M0 0h42.131v13.305H0z"/></clipPath></defs></svg>