<svg width="415" height="545" fill="none" xmlns="http://www.w3.org/2000/svg"><rect x="93" y="53" width="224" height="224" rx="112" fill="#fff" stroke="#EAFAEF" stroke-width="10"/><circle cx="147.169" cy="9.951" r="7" transform="rotate(-20 147.169 9.95)" fill="#09D9B9"/><circle cx="260.036" cy="320.049" r="7" transform="rotate(-20 260.036 320.049)" fill="#09D9B9"/><circle cx="97.543" cy="38.603" r="7" transform="rotate(-40 97.543 38.603)" fill="#09D9B9"/><circle cx="309.662" cy="291.397" r="7" transform="rotate(-40 309.662 291.397)" fill="#09D9B9"/><circle cx="60.708" cy="82.5" r="7" transform="rotate(-60 60.708 82.5)" fill="#09D9B9"/><circle cx="346.497" cy="247.5" r="7" transform="rotate(-60 346.497 247.5)" fill="#09D9B9"/><circle cx="41.109" cy="136.348" r="7" transform="rotate(-80 41.11 136.348)" fill="#09D9B9"/><circle cx="366.096" cy="193.652" r="7" transform="rotate(-80 366.096 193.652)" fill="#09D9B9"/><circle cx="41.109" cy="193.652" r="7" transform="rotate(-100 41.11 193.652)" fill="#09D9B9"/><circle cx="366.096" cy="136.348" r="8.5" transform="rotate(-100 366.096 136.348)" fill="#09D9B9" stroke="#fff" stroke-width="3"/><circle cx="60.708" cy="247.5" r="7" transform="rotate(-120 60.708 247.5)" fill="#09D9B9"/><circle cx="346.497" cy="82.5" r="7" transform="rotate(-120 346.497 82.5)" fill="#09D9B9"/><g filter="url(#filter0_d)"><g filter="url(#filter1_d)"><rect x="90" y="99" width="234.062" height="351.092" rx="10" fill="#000"/><rect x="90" y="99" width="234.062" height="351.092" rx="10" fill="url(#paint0_linear)" fill-opacity=".5"/></g><g clip-path="url(#clip0)" fill="#fff"><path d="M180.802 156.53l-3.32-4.798-.996 1.158v3.64h-2.988v-16.795h2.988v9.432h.166l3.653-4.303h3.486l-4.316 4.965 4.565 6.701h-3.238z"/><path d="M189.186 156.695c-1.162 0-2.158-.248-2.988-.744a5.328 5.328 0 0 1-1.992-2.069c-.498-.91-.664-1.903-.664-3.144 0-1.158.249-2.234.664-3.144a4.82 4.82 0 0 1 1.909-2.151 5.75 5.75 0 0 1 2.988-.827c.996 0 1.909.248 2.656.662.83.413 1.411 1.075 1.909 1.902.498.828.664 1.903.664 3.144v1.241h-7.885c.083.828.415 1.572.83 2.069.498.496 1.079.745 1.992.745.664 0 1.245-.166 1.577-.497.332-.331.581-.662.747-1.158l2.656.744c-.166.497-.415 1.076-.83 1.572a4.365 4.365 0 0 1-1.66 1.242 7.987 7.987 0 0 1-2.573.413zm-.166-9.597c-.664 0-1.245.248-1.66.662-.415.413-.747.992-.913 1.82h5.063c0-.662-.249-1.241-.664-1.738-.498-.496-1.079-.744-1.826-.744zm9.379 9.928l.249-.579-4.234-11.583h3.071l2.574 7.694h.166l2.573-7.694h3.071l-4.981 13.403c-.166.414-.415.91-.746 1.324-.332.414-.747.827-1.245 1.075-.498.249-1.163.414-1.91.414-.332 0-.581 0-.912-.083-.332-.082-.498-.165-.747-.248l.664-2.316c.746.165 1.244.165 1.576-.083.249-.166.582-.662.831-1.324zm17.845-8.439l-2.739.414c-.166-.58-.415-.993-.747-1.324-.332-.331-.83-.497-1.494-.497-.913 0-1.494.331-1.992.993-.415.662-.664 1.49-.664 2.565 0 1.076.249 1.986.664 2.648.415.661 1.079.992 1.992.992.581 0 1.079-.165 1.411-.496.332-.331.664-.745.747-1.241l2.739.414c-.249 1.075-.83 1.985-1.66 2.73a5.492 5.492 0 0 1-3.32 1.076c-1.162 0-2.075-.249-2.905-.745-.83-.497-1.411-1.241-1.909-2.151a7.603 7.603 0 0 1-.664-3.144c0-1.158.249-2.234.664-3.144.415-.91 1.079-1.572 1.909-2.069.83-.496 1.743-.744 2.905-.744 1.328 0 2.407.331 3.32 1.075.996.497 1.577 1.49 1.743 2.648zm7.719 7.943v-1.324h-.166c-.166.331-.498.744-.996 1.075-.498.331-1.162.497-1.992.497a4.94 4.94 0 0 1-1.909-.414c-.581-.248-.996-.662-1.411-1.158-.332-.497-.498-1.159-.498-1.903 0-1.158.415-1.986 1.245-2.565.83-.579 1.992-.91 3.486-1.075.332 0 .664-.083.996-.083.332 0 .581-.083.83-.166.166-.082.332-.248.332-.413v-.166c0-.496-.166-.91-.498-1.241a2.044 2.044 0 0 0-1.245-.414c-.581 0-.996.166-1.411.414-.415.248-.581.579-.747.993l-2.739-.414c.249-1.075.83-1.903 1.743-2.482.913-.579 1.992-.827 3.237-.827.747 0 1.494.165 2.241.413a4.247 4.247 0 0 1 1.743 1.241c.415.58.664 1.407.664 2.317v7.86h-2.905v-.165zm-.166-3.889v-1.572c-.083.083-.249.166-.415.248-.249.083-.498.083-.747.166a2.086 2.086 0 0 1-.664.082c-.664.083-1.245.249-1.577.497-.332.248-.498.662-.498 1.158 0 .414.166.745.415.993.332.248.664.331 1.162.331.664 0 1.162-.166 1.66-.579.498-.414.664-.828.664-1.324zm12.035-7.528l-.913 2.564c-.083-.082-.249-.082-.415-.165-.166-.083-.415-.083-.664-.083-.498 0-.913.083-1.245.331-.332.248-.664.579-.83.91-.166.414-.332.827-.332 1.241v6.619h-2.988v-11.666h2.905v1.655h.166c.166-.579.498-1.076.996-1.324a2.999 2.999 0 0 1 1.66-.496c.332 0 .581 0 .913.083.332.082.581.165.747.331zm10.209 11.417h-2.905v-1.406h-.166c-.166.413-.498.744-.996 1.075-.498.331-1.079.497-1.909.497-.913 0-1.66-.249-2.324-.662a5.255 5.255 0 0 1-1.66-2.069c-.415-.91-.581-1.986-.581-3.309 0-1.324.249-2.4.664-3.31.415-.91.996-1.572 1.66-1.985.747-.414 1.494-.662 2.324-.662.747 0 1.411.165 1.909.496.498.331.83.662.996 1.076h.083v-5.295h2.905v15.554zm-7.802-5.874c0 1.075.249 1.985.664 2.647.415.662 1.079.993 1.992.993.581 0 1.079-.165 1.494-.496.332-.331.664-.745.83-1.324a6.43 6.43 0 0 0 .249-1.82c0-.993-.166-1.903-.581-2.565-.415-.662-.996-.993-1.909-.993s-1.494.331-1.992.993c-.498.662-.747 1.489-.747 2.565zm-63.329-8.191c-3.818 0-6.889-3.144-6.889-6.95a6.861 6.861 0 0 1 6.889-6.867 6.861 6.861 0 0 1 6.889 6.867c.083 3.806-3.071 6.95-6.889 6.95zm0-11.087a4.155 4.155 0 0 0-4.15 4.137c0 2.317 1.909 4.137 4.15 4.137a4.155 4.155 0 0 0 4.15-4.137c.083-2.234-1.826-4.137-4.15-4.137z"/></g><g clip-path="url(#clip1)" fill="#fff" fill-opacity=".5"><path d="M224.21 363.997a1.758 1.758 0 0 0-2.483 2.489 7.904 7.904 0 0 1 0 11.174 1.751 1.751 0 0 0-.382 1.914 1.752 1.752 0 0 0 1.622 1.086 1.767 1.767 0 0 0 1.243-.513 11.416 11.416 0 0 0 0-16.138v-.012z"/><path d="M227.006 362.768a13.165 13.165 0 0 1 0 18.608 1.752 1.752 0 0 0-.405 1.927 1.764 1.764 0 0 0 .96.96 1.744 1.744 0 0 0 1.357-.012c.215-.092.408-.225.57-.393a16.674 16.674 0 0 0 0-23.585 1.758 1.758 0 0 0-3 1.252c.001.467.187.914.518 1.243z"/></g><rect x="160.999" y="346.325" width="46.812" height="49.213" rx="5" fill="#EEC458"/><rect x="160.999" y="346.325" width="46.812" height="49.213" rx="5" fill="url(#paint1_linear)" fill-opacity=".6"/><mask id="a" maskUnits="userSpaceOnUse" x="160" y="346" width="48" height="50"><rect x="160.999" y="346.325" width="46.812" height="49.213" rx="5" fill="#EEC458"/><rect x="160.999" y="346.325" width="46.812" height="49.213" rx="5" fill="url(#paint2_linear)" fill-opacity=".6"/></mask><g mask="url(#a)"><path stroke="#C4A145" stroke-width="4" d="M140.373 360.808h38.131v49.054h-38.131zm55.394-22.626h38.131V400.5h-38.131z"/><path fill="#C4A145" d="M195.328 360.369h13.264v3.121h-13.264z"/><path fill="#C4A145" d="M195.328 360.369h13.264v3.121h-13.264z"/><path fill="#C4A145" d="M195.328 360.369h13.264v3.121h-13.264z"/><path fill="#C4A145" d="M195.328 360.369h13.264v3.121h-13.264zm0 17.164h13.264v3.121h-13.264z"/><path fill="#C4A145" d="M195.328 377.533h13.264v3.121h-13.264z"/><path fill="#C4A145" d="M195.328 377.533h13.264v3.121h-13.264z"/><path fill="#C4A145" d="M195.328 377.533h13.264v3.121h-13.264zm-39.011-7.022h22.626v3.121h-22.626z"/><path fill="#C4A145" d="M156.317 370.511h22.626v3.121h-22.626z"/><path fill="#C4A145" d="M156.317 370.511h22.626v3.121h-22.626z"/><path fill="#C4A145" d="M156.317 370.511h22.626v3.121h-22.626zm0 12.484h22.626v3.121h-22.626z"/><path fill="#C4A145" d="M156.317 382.995h22.626v3.121h-22.626z"/><path fill="#C4A145" d="M156.317 382.995h22.626v3.121h-22.626z"/><path fill="#C4A145" d="M156.317 382.995h22.626v3.121h-22.626z"/></g></g><defs><filter id="filter0_d" x="0" y="13" width="414.062" height="531.092" filterUnits="userSpaceOnUse" color-interpolation-filters="sRGB"><feFlood flood-opacity="0" result="BackgroundImageFix"/><feColorMatrix in="SourceAlpha" values="0 0 0 0 0 0 0 0 0 0 0 0 0 0 0 0 0 0 127 0"/><feOffset dy="4"/><feGaussianBlur stdDeviation="45"/><feColorMatrix values="0 0 0 0 0 0 0 0 0 0 0 0 0 0 0 0 0 0 0.2 0"/><feBlend in2="BackgroundImageFix" result="effect1_dropShadow"/><feBlend in="SourceGraphic" in2="effect1_dropShadow" result="shape"/></filter><filter id="filter1_d" x="70" y="83" width="274.062" height="391.092" filterUnits="userSpaceOnUse" color-interpolation-filters="sRGB"><feFlood flood-opacity="0" result="BackgroundImageFix"/><feColorMatrix in="SourceAlpha" values="0 0 0 0 0 0 0 0 0 0 0 0 0 0 0 0 0 0 127 0"/><feOffset dy="4"/><feGaussianBlur stdDeviation="10"/><feColorMatrix values="0 0 0 0 0 0 0 0 0 0 0 0 0 0 0 0 0 0 0.25 0"/><feBlend in2="BackgroundImageFix" result="effect1_dropShadow"/><feBlend in="SourceGraphic" in2="effect1_dropShadow" result="shape"/></filter><linearGradient id="paint0_linear" x1="17.441" y1="400.939" x2="324.062" y2="-71.865" gradientUnits="userSpaceOnUse"><stop/><stop offset="1" stop-color="#fff"/></linearGradient><linearGradient id="paint1_linear" x1="230.697" y1="329.921" x2="165.159" y2="360.987" gradientUnits="userSpaceOnUse"><stop stop-color="#fff"/><stop offset="1" stop-color="#fff" stop-opacity="0"/></linearGradient><linearGradient id="paint2_linear" x1="230.697" y1="329.921" x2="165.159" y2="360.987" gradientUnits="userSpaceOnUse"><stop stop-color="#fff"/><stop offset="1" stop-color="#fff" stop-opacity="0"/></linearGradient><clipPath id="clip0"><path fill="#fff" transform="translate(168.021 128.648)" d="M0 0h78.02v32.798H0z"/></clipPath><clipPath id="clip1"><path fill="#fff" transform="rotate(90 -58.314 292.692)" d="M0 0h42.131v13.305H0z"/></clipPath></defs></svg>