<svg width="157" height="66" fill="none" xmlns="http://www.w3.org/2000/svg"><g clip-path="url(#clip0)" fill="#09D9B9"><path d="M25.721 56.108l-6.68-9.657-2.005 2.331v7.326h-6.013V22.31h6.013v18.98h.334l7.349-8.657h7.015l-8.685 9.99 9.186 13.485h-6.514z"/><path d="M42.591 56.44c-2.338 0-4.342-.5-6.013-1.499a10.71 10.71 0 0 1-4.008-4.162c-1.002-1.832-1.336-3.83-1.336-6.327 0-2.33.5-4.495 1.336-6.326a9.704 9.704 0 0 1 3.841-4.33 11.563 11.563 0 0 1 6.013-1.664c2.004 0 3.842.5 5.345 1.332 1.67.832 2.84 2.164 3.841 3.83 1.002 1.664 1.336 3.828 1.336 6.326v2.497H37.08c.167 1.665.835 3.163 1.67 4.162 1.003 1 2.172 1.499 4.01 1.499 1.335 0 2.504-.333 3.173-1 .668-.665 1.169-1.331 1.503-2.33l5.344 1.498c-.334 1-.835 2.165-1.67 3.164-.835.999-1.837 1.831-3.34 2.497-1.503.5-3.174.832-5.178.832zm-.334-19.313c-1.336 0-2.505.499-3.34 1.332-.836.832-1.504 1.997-1.838 3.662h10.189c0-1.332-.501-2.497-1.336-3.496-1.003-.999-2.172-1.498-3.675-1.498zM61.13 57.105l.5-1.165-8.518-23.309h6.18l5.178 15.484h.334L69.98 32.63h6.18L66.14 59.602c-.334.833-.835 1.832-1.503 2.665-.668.832-1.503 1.664-2.505 2.164-1.003.5-2.339.832-3.842.832-.668 0-1.17 0-1.837-.166-.668-.167-1.002-.333-1.503-.5l1.336-4.661c1.503.333 2.505.333 3.173-.167.501-.333 1.17-1.332 1.67-2.664zm35.91-16.982l-5.512.833c-.335-1.166-.836-1.998-1.504-2.664-.668-.666-1.67-.999-3.006-.999-1.837 0-3.006.666-4.008 1.998-.836 1.332-1.337 2.997-1.337 5.161 0 2.164.501 3.996 1.337 5.328.835 1.331 2.17 1.998 4.008 1.998 1.17 0 2.171-.333 2.84-1 .667-.665 1.335-1.498 1.502-2.497l5.512.833c-.5 2.164-1.67 3.995-3.34 5.494-1.837 1.332-4.009 2.164-6.681 2.164-2.338 0-4.176-.5-5.846-1.498-1.67-1-2.84-2.498-3.841-4.329-.835-1.831-1.336-3.996-1.336-6.327 0-2.33.5-4.495 1.336-6.326.835-1.831 2.17-3.163 3.841-4.162 1.67-1 3.508-1.499 5.846-1.499 2.672 0 4.844.666 6.68 2.165 2.005.999 3.174 2.996 3.508 5.327zm15.533 15.983v-2.663h-.334c-.334.666-1.003 1.498-2.005 2.164-1.002.666-2.338.999-4.008.999-1.337 0-2.673-.333-3.842-.833-1.169-.5-2.004-1.332-2.84-2.33-.667-1-1.001-2.331-1.001-3.83 0-2.33.835-3.995 2.505-5.161 1.67-1.165 4.008-1.831 7.015-2.164.668 0 1.336-.167 2.004-.167.668 0 1.169-.166 1.67-.333.335-.166.669-.5.669-.832v-.333c0-1-.334-1.832-1.003-2.498a4.11 4.11 0 0 0-2.505-.832c-1.169 0-2.004.333-2.839.832-.836.5-1.17 1.166-1.503 1.998l-5.512-.832c.5-2.164 1.67-3.83 3.507-4.995 1.838-1.165 4.009-1.665 6.514-1.665 1.503 0 3.007.333 4.51.833 1.336.5 2.505 1.332 3.507 2.497.835 1.166 1.336 2.83 1.336 4.662v15.816h-5.845v-.333zm-.334-7.825v-3.163c-.167.166-.502.333-.836.5-.501.166-1.002.166-1.503.332-.501.167-1.002.167-1.336.167-1.336.166-2.505.5-3.173.999-.668.5-1.002 1.332-1.002 2.33 0 .833.334 1.499.834 1.999.669.5 1.337.666 2.339.666 1.336 0 2.338-.333 3.34-1.166 1.003-.832 1.337-1.665 1.337-2.664zm24.217-15.149l-1.837 5.161c-.167-.166-.501-.166-.835-.333-.335-.166-.836-.166-1.337-.166-1.002 0-1.837.166-2.505.665-.668.5-1.336 1.166-1.67 1.832-.334.832-.668 1.665-.668 2.497v13.32h-6.013V32.631h5.846v3.33h.334c.334-1.165 1.002-2.164 2.004-2.664a6.035 6.035 0 0 1 3.34-.999c.668 0 1.17 0 1.838.167.668.166 1.169.333 1.503.666zm20.545 22.975h-5.846v-2.83h-.334c-.334.832-1.002 1.498-2.004 2.164-1.002.666-2.172 1-3.842 1-1.837 0-3.34-.5-4.677-1.333a10.556 10.556 0 0 1-3.34-4.162c-.835-1.831-1.169-3.996-1.169-6.66 0-2.663.501-4.828 1.336-6.66.835-1.83 2.004-3.162 3.34-3.995 1.504-.832 3.007-1.332 4.677-1.332 1.503 0 2.84.333 3.842 1 1.002.665 1.67 1.331 2.004 2.163h.167V24.807h5.846v31.3zm-15.7-11.82c0 2.164.501 3.995 1.336 5.327.835 1.332 2.171 1.998 4.008 1.998 1.17 0 2.172-.333 3.007-1 .668-.665 1.336-1.497 1.67-2.663a12.94 12.94 0 0 0 .501-3.663c0-1.998-.334-3.829-1.169-5.16-.835-1.333-2.005-1.999-3.842-1.999-1.837 0-3.006.666-4.008 1.998-1.002 1.332-1.503 2.997-1.503 5.161zM13.863 27.804C6.18 27.804 0 21.477 0 13.819 0 6.16 6.18 0 13.863 0s13.863 6.16 13.863 13.819c.167 7.658-6.18 13.985-13.863 13.985zm0-22.31c-4.677 0-8.351 3.83-8.351 8.325 0 4.661 3.841 8.324 8.35 8.324 4.677 0 8.352-3.83 8.352-8.324.167-4.496-3.675-8.325-8.351-8.325z"/></g><defs><clipPath id="clip0"><path fill="#fff" d="M0 0h157v66H0z"/></clipPath></defs></svg>