<svg width="447" height="523" fill="none" xmlns="http://www.w3.org/2000/svg"><path d="M366.015 133.898h-7.191L357.457 138h-4.362l7.411-19.906h3.8L371.758 138h-4.362l-1.381-4.102zm-6.084-3.322h4.977l-2.502-7.451-2.475 7.451zm17.788.41V138h-4.102v-19.906h7.766c1.494 0 2.807.273 3.937.82 1.139.547 2.014 1.326 2.625 2.338.611 1.002.916 2.146.916 3.431 0 1.951-.67 3.491-2.01 4.621-1.33 1.122-3.176 1.682-5.537 1.682h-3.595zm0-3.322h3.664c1.084 0 1.909-.255 2.474-.766.574-.51.862-1.239.862-2.187 0-.976-.288-1.764-.862-2.366-.574-.601-1.367-.911-2.379-.929h-3.759v6.248zM396.052 138h-4.101v-19.906h4.101V138z" fill="#0E1C36"/><circle r="45.32" transform="rotate(-50 325.044 -339.182) skewX(.081)" stroke="#EAFAEF" stroke-width="10"/><path d="M63.753 98.159h3.516v11.812c0 1.086-.243 2.047-.727 2.883a4.864 4.864 0 0 1-2.027 1.922c-.875.453-1.864.68-2.965.68-1.805 0-3.211-.457-4.219-1.371-1.008-.922-1.512-2.223-1.512-3.903h3.54c0 .836.175 1.453.527 1.852.351.398.906.597 1.664.597.672 0 1.207-.23 1.605-.691.399-.461.598-1.117.598-1.969V98.159zm13.652 17.062c-.156-.304-.27-.683-.34-1.136-.82.914-1.886 1.371-3.199 1.371-1.242 0-2.273-.36-3.094-1.078-.812-.719-1.218-1.625-1.218-2.719 0-1.344.496-2.375 1.488-3.094 1-.719 2.441-1.082 4.324-1.09h1.559v-.726c0-.586-.153-1.055-.457-1.407-.297-.351-.77-.527-1.418-.527-.57 0-1.02.137-1.348.41-.32.274-.48.649-.48 1.125h-3.387c0-.734.227-1.414.68-2.039.453-.625 1.093-1.113 1.921-1.465.829-.359 1.758-.539 2.79-.539 1.562 0 2.8.395 3.714 1.184.922.781 1.383 1.883 1.383 3.305v5.496c.008 1.203.176 2.113.504 2.73v.199h-3.422zm-2.8-2.355c.5 0 .96-.11 1.382-.328.422-.227.735-.528.938-.903v-2.179h-1.266c-1.695 0-2.598.586-2.707 1.757l-.012.2c0 .422.149.769.446 1.043.297.273.703.41 1.218.41zm12.878-1.781l2.356-8.543h3.539L89.1 115.221h-3.234l-4.277-12.679h3.539l2.355 8.543zm14.555 4.136c-.156-.304-.27-.683-.34-1.136-.82.914-1.886 1.371-3.199 1.371-1.242 0-2.273-.36-3.094-1.078-.812-.719-1.219-1.625-1.219-2.719 0-1.344.497-2.375 1.489-3.094 1-.719 2.441-1.082 4.324-1.09h1.559v-.726c0-.586-.153-1.055-.457-1.407-.297-.351-.77-.527-1.418-.527-.57 0-1.02.137-1.348.41-.32.274-.48.649-.48 1.125h-3.387c0-.734.226-1.414.68-2.039.453-.625 1.093-1.113 1.921-1.465.828-.359 1.758-.539 2.79-.539 1.562 0 2.8.395 3.714 1.184.922.781 1.383 1.883 1.383 3.305v5.496c.008 1.203.176 2.113.504 2.73v.199h-3.422zm-2.8-2.355c.5 0 .96-.11 1.382-.328.422-.227.734-.528.938-.903v-2.179h-1.266c-1.695 0-2.598.586-2.707 1.757l-.012.2c0 .422.149.769.446 1.043.296.273.703.41 1.218.41zm23.366-2.121c0-.664-.234-1.172-.703-1.524-.468-.359-1.312-.734-2.531-1.125-1.219-.398-2.184-.789-2.894-1.172-1.938-1.046-2.907-2.457-2.907-4.23 0-.922.258-1.742.774-2.461.523-.727 1.269-1.293 2.238-1.7.977-.406 2.07-.609 3.281-.609 1.219 0 2.305.223 3.258.668.953.438 1.691 1.059 2.215 1.864.531.804.797 1.718.797 2.742h-3.516c0-.781-.246-1.387-.738-1.817-.492-.437-1.184-.656-2.074-.656-.86 0-1.528.184-2.004.551a1.702 1.702 0 0 0-.715 1.43c0 .554.277 1.019.832 1.394.562.375 1.387.727 2.473 1.055 2 .601 3.457 1.348 4.371 2.238.914.891 1.371 2 1.371 3.328 0 1.477-.559 2.637-1.676 3.481-1.117.836-2.621 1.254-4.512 1.254-1.312 0-2.508-.239-3.586-.715-1.078-.485-1.902-1.145-2.472-1.981-.563-.836-.844-1.804-.844-2.906h3.527c0 1.883 1.125 2.824 3.375 2.824.836 0 1.489-.168 1.957-.504.469-.343.703-.82.703-1.429zm5.918 4.476V98.159h5.25c1.5 0 2.84.34 4.02 1.02 1.187.671 2.113 1.632 2.777 2.882.664 1.242.996 2.656.996 4.242v.785c0 1.586-.328 2.997-.984 4.231a6.968 6.968 0 0 1-2.754 2.871c-1.187.68-2.527 1.023-4.019 1.031h-5.286zm3.516-14.215v11.391h1.699c1.375 0 2.426-.449 3.153-1.348.726-.898 1.097-2.183 1.113-3.855v-.902c0-1.735-.36-3.047-1.078-3.938-.719-.898-1.77-1.348-3.153-1.348h-1.734zm17.438 7.372l-1.829 1.968v4.875h-3.515V98.159h3.515v7.734l1.547-2.121 4.348-5.613h4.324l-6.058 7.582 6.234 9.48h-4.184l-4.382-6.843z" fill="#0E1C36"/><path d="M164.038 155.179c-25.526 30.509-70.922 34.512-101.395 8.943-30.472-25.569-34.482-71.03-8.955-101.538 25.526-30.508 70.922-34.512 101.395-8.943 30.472 25.57 34.482 71.03 8.955 101.538z" stroke="#EAFAEF" stroke-width="10"/><circle cx="256" cy="323.004" r="160" stroke="#EAFAEF" stroke-width="10"/><g filter="url(#filter0_d)"><rect x="139" y="147.352" width="234.062" height="351.222" rx="10" fill="#000"/><rect x="139" y="147.352" width="234.062" height="351.222" rx="10" fill="url(#paint0_linear)" fill-opacity=".5"/></g><g clip-path="url(#clip0)" fill="#fff"><path d="M229.802 204.904l-3.32-4.801-.996 1.159v3.642h-2.988v-16.802h2.988v9.436h.166l3.653-4.304h3.486l-4.317 4.966 4.566 6.704h-3.238z"/><path d="M238.186 205.069c-1.162 0-2.158-.249-2.988-.745a5.328 5.328 0 0 1-1.992-2.069c-.498-.911-.664-1.904-.664-3.145 0-1.159.249-2.235.664-3.146a4.82 4.82 0 0 1 1.909-2.151 5.741 5.741 0 0 1 2.988-.828c.996 0 1.909.248 2.656.662.83.414 1.411 1.076 1.909 1.904.498.827.664 1.903.664 3.145v1.241h-7.885c.083.828.415 1.573.83 2.069.498.497 1.079.745 1.992.745.664 0 1.245-.165 1.577-.496.332-.331.581-.662.747-1.159l2.656.745c-.166.496-.415 1.076-.83 1.572a4.365 4.365 0 0 1-1.66 1.242 7.986 7.986 0 0 1-2.573.414zm-.166-9.601c-.664 0-1.245.248-1.66.662-.415.414-.747.993-.913 1.821h5.063c0-.662-.249-1.242-.664-1.738-.498-.497-1.079-.745-1.826-.745zm9.378 9.932l.249-.58-4.233-11.587h3.071l2.574 7.697h.166l2.572-7.697h3.071l-4.98 13.408c-.166.414-.415.911-.746 1.325-.332.413-.748.827-1.246 1.075-.498.249-1.162.414-1.909.414-.332 0-.581 0-.913-.082-.332-.083-.498-.166-.747-.249l.664-2.317c.747.165 1.245.165 1.577-.083.249-.166.581-.662.83-1.324zm17.846-8.442l-2.739.413c-.166-.579-.415-.993-.747-1.324-.332-.331-.83-.496-1.494-.496-.913 0-1.494.331-1.992.993-.415.662-.664 1.49-.664 2.565 0 1.076.249 1.987.664 2.649.415.662 1.079.993 1.992.993.581 0 1.079-.165 1.411-.496.332-.331.664-.745.747-1.242l2.739.414c-.249 1.076-.83 1.986-1.66 2.731a5.492 5.492 0 0 1-3.32 1.076c-1.162 0-2.075-.248-2.905-.745-.83-.496-1.411-1.241-1.909-2.152a7.604 7.604 0 0 1-.664-3.145 7.61 7.61 0 0 1 .664-3.145c.415-.91 1.079-1.572 1.909-2.069.83-.497 1.743-.745 2.905-.745 1.328 0 2.407.331 3.32 1.076.996.497 1.577 1.49 1.743 2.649zm7.719 7.945v-1.324h-.166c-.166.331-.498.745-.996 1.076-.498.331-1.162.496-1.992.496a4.94 4.94 0 0 1-1.909-.413c-.581-.249-.996-.663-1.411-1.159-.332-.497-.498-1.159-.498-1.904 0-1.158.415-1.986 1.245-2.566.83-.579 1.992-.91 3.486-1.075.332 0 .664-.083.996-.083.332 0 .581-.083.83-.166.166-.083.332-.248.332-.414v-.165c0-.497-.166-.911-.498-1.242a2.044 2.044 0 0 0-1.245-.413c-.581 0-.996.165-1.411.413-.415.249-.581.58-.747.994l-2.739-.414c.249-1.076.83-1.904 1.743-2.483.913-.58 1.992-.828 3.237-.828.747 0 1.494.166 2.241.414a4.237 4.237 0 0 1 1.743 1.241c.415.58.664 1.407.664 2.318v7.863h-2.905v-.166zm-.166-3.89v-1.572c-.083.082-.249.165-.415.248-.249.083-.498.083-.747.165-.249.083-.498.083-.664.083-.664.083-1.245.248-1.577.497-.332.248-.498.662-.498 1.158 0 .414.166.745.415.994.332.248.664.331 1.162.331.664 0 1.162-.166 1.66-.58.498-.413.664-.827.664-1.324zm12.035-7.531l-.913 2.566c-.083-.083-.249-.083-.415-.166-.166-.083-.415-.083-.664-.083-.498 0-.913.083-1.245.331-.332.249-.664.58-.83.911-.166.414-.332.827-.332 1.241v6.622h-2.988v-11.67h2.905v1.655h.166c.166-.579.498-1.076.996-1.324a3 3 0 0 1 1.66-.497c.332 0 .581 0 .913.083.332.083.581.165.747.331zm10.209 11.422h-2.905v-1.407h-.166c-.166.413-.498.744-.996 1.075-.498.332-1.079.497-1.909.497-.913 0-1.66-.248-2.324-.662a5.255 5.255 0 0 1-1.66-2.069c-.415-.911-.581-1.987-.581-3.311 0-1.324.249-2.4.664-3.311.415-.91.996-1.572 1.66-1.986.747-.414 1.494-.662 2.324-.662.747 0 1.411.165 1.909.497.498.331.83.662.996 1.075h.083v-5.297h2.905v15.561zm-7.802-5.877c0 1.076.249 1.987.664 2.649.415.662 1.079.993 1.992.993.581 0 1.079-.166 1.494-.497.332-.331.664-.745.83-1.324a6.437 6.437 0 0 0 .249-1.821c0-.993-.166-1.904-.581-2.566-.415-.662-.996-.993-1.909-.993s-1.494.331-1.992.993c-.498.662-.747 1.49-.747 2.566zm-63.329-8.194c-3.818 0-6.889-3.145-6.889-6.952a6.862 6.862 0 0 1 6.889-6.87 6.862 6.862 0 0 1 6.889 6.87c.083 3.807-3.071 6.952-6.889 6.952zm0-11.091c-2.324 0-4.15 1.904-4.15 4.139 0 2.317 1.909 4.138 4.15 4.138 2.324 0 4.15-1.904 4.15-4.138.083-2.235-1.826-4.139-4.15-4.139z"/></g><g clip-path="url(#clip1)" fill="#fff" fill-opacity=".5"><path d="M273.21 412.447a1.758 1.758 0 0 0-2.483 2.49 7.909 7.909 0 0 1 0 11.178 1.76 1.76 0 0 0-.002 2.486 1.751 1.751 0 0 0 1.242.516 1.762 1.762 0 0 0 1.243-.514 11.433 11.433 0 0 0 2.474-3.703 11.43 11.43 0 0 0 0-8.737 11.437 11.437 0 0 0-2.474-3.704v-.012z"/><path d="M276.006 411.218a13.174 13.174 0 0 1 0 18.615 1.752 1.752 0 0 0 .555 2.888 1.762 1.762 0 0 0 1.357-.012c.215-.092.408-.226.57-.393a16.685 16.685 0 0 0 0-23.594 1.761 1.761 0 0 0-3 1.252c.001.467.187.914.518 1.244z"/></g><rect x="209.999" y="394.769" width="46.812" height="49.231" rx="5" fill="#EEC458"/><rect x="209.999" y="394.769" width="46.812" height="49.231" rx="5" fill="url(#paint1_linear)" fill-opacity=".6"/><mask id="a" maskUnits="userSpaceOnUse" x="209" y="394" width="48" height="50"><rect x="209.999" y="394.769" width="46.812" height="49.231" rx="5" fill="#EEC458"/><rect x="209.999" y="394.769" width="46.812" height="49.231" rx="5" fill="url(#paint2_linear)" fill-opacity=".6"/></mask><g mask="url(#a)"><path stroke="#C4A145" stroke-width="4" d="M189.373 409.257h38.131v49.074h-38.131zm55.394-22.635h38.131v62.342h-38.131z"/><path fill="#C4A145" d="M244.328 408.818h13.264v3.122h-13.264z"/><path fill="#C4A145" d="M244.328 408.818h13.264v3.122h-13.264z"/><path fill="#C4A145" d="M244.328 408.818h13.264v3.122h-13.264z"/><path fill="#C4A145" d="M244.328 408.818h13.264v3.122h-13.264zm0 17.171h13.264v3.122h-13.264z"/><path fill="#C4A145" d="M244.328 425.989h13.264v3.122h-13.264z"/><path fill="#C4A145" d="M244.328 425.989h13.264v3.122h-13.264z"/><path fill="#C4A145" d="M244.328 425.989h13.264v3.122h-13.264zm-39.011-7.025h22.626v3.122h-22.626z"/><path fill="#C4A145" d="M205.317 418.964h22.626v3.122h-22.626z"/><path fill="#C4A145" d="M205.317 418.964h22.626v3.122h-22.626z"/><path fill="#C4A145" d="M205.317 418.964h22.626v3.122h-22.626zm0 12.488h22.626v3.122h-22.626z"/><path fill="#C4A145" d="M205.317 431.452h22.626v3.122h-22.626z"/><path fill="#C4A145" d="M205.317 431.452h22.626v3.122h-22.626z"/><path fill="#C4A145" d="M205.317 431.452h22.626v3.122h-22.626z"/></g><g clip-path="url(#clip2)"><path fill-rule="evenodd" clip-rule="evenodd" d="M255.956 261.345c-27.057 0-48.997 21.803-48.997 48.706 0 21.514 14.039 39.769 33.513 46.21 2.45.447 3.344-1.057 3.344-2.347 0-1.157-.043-4.219-.067-8.283-13.631 2.944-16.507-6.529-16.507-6.529-2.226-5.625-5.439-7.123-5.439-7.123-4.45-3.022.337-2.962.337-2.962 4.915.344 7.503 5.02 7.503 5.02 4.373 7.442 11.469 5.293 14.262 4.045.444-3.147 1.712-5.293 3.112-6.511-10.881-1.229-22.32-5.406-22.32-24.068 0-5.318 1.908-9.665 5.044-13.071-.505-1.233-2.186-6.182.478-12.888 0 0 4.116-1.309 13.475 4.992 3.911-1.08 8.1-1.619 12.268-1.64 4.162.021 8.355.56 12.269 1.64 9.353-6.301 13.459-4.992 13.459-4.992 2.674 6.706.993 11.655.487 12.888 3.142 3.406 5.038 7.753 5.038 13.071 0 18.708-11.457 22.826-22.371 24.032 1.757 1.503 3.325 4.474 3.325 9.019 0 6.511-.061 11.762-.061 13.36 0 1.302.882 2.818 3.369 2.34 19.456-6.453 33.482-24.695 33.482-46.203 0-26.903-21.94-48.706-49.003-48.706z" fill="#fff"/></g><defs><filter id="filter0_d" x="119" y="131.352" width="274.062" height="391.222" filterUnits="userSpaceOnUse" color-interpolation-filters="sRGB"><feFlood flood-opacity="0" result="BackgroundImageFix"/><feColorMatrix in="SourceAlpha" values="0 0 0 0 0 0 0 0 0 0 0 0 0 0 0 0 0 0 127 0"/><feOffset dy="4"/><feGaussianBlur stdDeviation="10"/><feColorMatrix values="0 0 0 0 0 0 0 0 0 0 0 0 0 0 0 0 0 0 0.25 0"/><feBlend in2="BackgroundImageFix" result="effect1_dropShadow"/><feBlend in="SourceGraphic" in2="effect1_dropShadow" result="shape"/></filter><linearGradient id="paint0_linear" x1="66.441" y1="449.403" x2="373.221" y2="-23.472" gradientUnits="userSpaceOnUse"><stop/><stop offset="1" stop-color="#fff"/></linearGradient><linearGradient id="paint1_linear" x1="279.697" y1="378.358" x2="214.15" y2="409.417" gradientUnits="userSpaceOnUse"><stop stop-color="#fff"/><stop offset="1" stop-color="#fff" stop-opacity="0"/></linearGradient><linearGradient id="paint2_linear" x1="279.697" y1="378.358" x2="214.15" y2="409.417" gradientUnits="userSpaceOnUse"><stop stop-color="#fff"/><stop offset="1" stop-color="#fff" stop-opacity="0"/></linearGradient><clipPath id="clip0"><path fill="#fff" transform="translate(217.021 177.011)" d="M0 0h78.02v32.811H0z"/></clipPath><clipPath id="clip1"><path fill="#fff" transform="rotate(90 -58.037 341.416)" d="M0 0h42.147v13.305H0z"/></clipPath><clipPath id="clip2"><path fill="#fff" transform="translate(206.959 261.345)" d="M0 0h98v95H0z"/></clipPath></defs></svg>