<svg width="526" height="473" fill="none" xmlns="http://www.w3.org/2000/svg"><ellipse cx="262.667" cy="8.536" rx="8.548" ry="8.536" fill="#000" fill-opacity=".2"/><ellipse rx="8.547" ry="8.538" transform="rotate(-19.974 155.567 -484.79) skewX(.053)" fill="#09D9B9"/><ellipse rx="8.543" ry="8.541" transform="rotate(-39.96 143.045 -100.31) skewX(.081)" fill="#000" fill-opacity=".2"/><ellipse rx="8.543" ry="8.541" transform="rotate(-39.96 847.454 -357.535) skewX(.081)" fill="#09D9B9"/><ellipse rx="8.539" ry="8.545" transform="rotate(-59.965 138.652 33.125) skewX(.071)" fill="#09D9B9"/><ellipse rx="8.539" ry="8.545" transform="rotate(-59.965 582.676 -223.783) skewX(.071)" fill="#000" fill-opacity=".2"/><ellipse cx="10.111" cy="220.153" rx="8.536" ry="8.548" transform="rotate(-80 10.11 220.153)" fill="#000" fill-opacity=".2"/><ellipse rx="8.536" ry="8.548" transform="rotate(-79.986 441.834 -152.54) skewX(.028)" fill="#09D9B9"/><ellipse rx="8.536" ry="8.548" transform="rotate(-100.014 134.702 150.302) skewX(-.028)" fill="#09D9B9"/><ellipse opacity=".2" rx="8.536" ry="8.548" transform="rotate(-100.014 349.951 -106.031) skewX(-.028)" fill="#0E1C36"/><ellipse rx="8.539" ry="8.545" transform="rotate(-120.035 133.558 184.625) skewX(-.071)" fill="#000" fill-opacity=".2"/><ellipse rx="8.539" ry="8.545" transform="rotate(-120.035 281.777 -71.549) skewX(-.071)" fill="#09D9B9"/><ellipse rx="8.543" ry="8.541" transform="rotate(-140.04 132.677 212.612) skewX(-.081)" fill="#09D9B9"/><ellipse rx="8.543" ry="8.541" transform="rotate(-140.04 226.197 -43.49) skewX(-.081)" fill="#000" fill-opacity=".2"/><ellipse rx="8.547" ry="8.538" transform="rotate(-160.026 177.3 -18.86) skewX(-.053)" fill="#09D9B9"/><g filter="url(#filter0_d)"><rect x="147.583" y="68.64" width="234.396" height="351.092" rx="10" fill="#000"/><rect x="147.583" y="68.64" width="234.396" height="351.092" rx="10" fill="url(#paint0_linear)" fill-opacity=".5"/></g><g clip-path="url(#clip0)" fill="#fff"><path d="M238.516 126.171l-3.325-4.799-.998 1.158v3.641h-2.992v-16.796h2.992v9.432h.167l3.657-4.302h3.491l-4.322 4.964 4.571 6.702h-3.241z"/><path d="M246.911 126.335c-1.163 0-2.161-.248-2.992-.744a5.335 5.335 0 0 1-1.995-2.069c-.499-.91-.665-1.903-.665-3.144 0-1.158.249-2.234.665-3.144a4.832 4.832 0 0 1 1.912-2.151 5.762 5.762 0 0 1 2.992-.827c.997 0 1.912.248 2.66.662.831.413 1.413 1.075 1.912 1.903.498.827.665 1.903.665 3.144v1.241h-7.897c.083.827.416 1.572.831 2.068.499.496 1.081.745 1.995.745.665 0 1.247-.166 1.58-.497.332-.331.581-.662.748-1.158l2.659.745c-.166.496-.415 1.075-.831 1.572-.415.496-.914.91-1.662 1.241a8.008 8.008 0 0 1-2.577.413zm-.166-9.597c-.665 0-1.247.248-1.662.662-.416.413-.749.993-.915 1.82h5.071c0-.662-.25-1.241-.665-1.737-.499-.497-1.081-.745-1.829-.745zm9.392 9.928l.249-.579-4.239-11.583h3.076l2.576 7.694h.167l2.576-7.694h3.076l-4.988 13.403c-.166.414-.415.91-.748 1.324-.332.414-.748.827-1.246 1.076-.499.248-1.164.413-1.912.413-.333 0-.582 0-.914-.082-.333-.083-.499-.166-.749-.249l.665-2.316c.748.165 1.247.165 1.58-.083.249-.166.582-.662.831-1.324zm17.871-8.439l-2.743.414c-.166-.579-.416-.993-.748-1.324-.333-.331-.832-.496-1.496-.496-.915 0-1.497.33-1.995.992-.416.662-.665 1.49-.665 2.565 0 1.076.249 1.986.665 2.648.415.662 1.08.993 1.995.993.581 0 1.08-.166 1.413-.497.332-.331.665-.744.748-1.241l2.743.414c-.25 1.075-.832 1.986-1.663 2.73a5.505 5.505 0 0 1-3.325 1.076c-1.163 0-2.078-.249-2.909-.745s-1.413-1.241-1.912-2.151a7.603 7.603 0 0 1-.664-3.144c0-1.158.249-2.234.664-3.144.416-.91 1.081-1.572 1.912-2.068.831-.497 1.746-.745 2.909-.745 1.33 0 2.411.331 3.325 1.076.998.496 1.579 1.489 1.746 2.647zm7.73 7.943v-1.324h-.166c-.167.331-.499.745-.998 1.076-.498.33-1.163.496-1.995.496a4.95 4.95 0 0 1-1.911-.414c-.582-.248-.998-.662-1.413-1.158-.333-.496-.499-1.158-.499-1.903 0-1.158.415-1.986 1.247-2.565.831-.579 1.994-.91 3.491-1.075.332 0 .665-.083.997-.083.333 0 .582-.083.831-.166.167-.082.333-.248.333-.413v-.166c0-.496-.166-.91-.499-1.241a2.048 2.048 0 0 0-1.247-.413c-.582 0-.997.165-1.413.413-.415.248-.582.579-.748.993l-2.743-.414c.25-1.075.831-1.903 1.746-2.482.914-.579 1.995-.827 3.241-.827.749 0 1.497.165 2.245.414.665.248 1.246.662 1.745 1.241.416.579.665 1.406.665 2.316v7.86h-2.909v-.165zm-.166-3.889v-1.572c-.083.083-.25.166-.416.248-.249.083-.499.083-.748.166a2.068 2.068 0 0 1-.665.083c-.665.082-1.247.248-1.579.496-.333.248-.499.662-.499 1.158 0 .414.166.745.416.993.332.248.665.331 1.163.331.665 0 1.164-.165 1.663-.579.498-.414.665-.827.665-1.324zm12.052-7.528l-.915 2.565c-.083-.083-.249-.083-.415-.166-.167-.083-.416-.083-.665-.083-.499 0-.915.083-1.247.331-.333.249-.665.58-.831.91-.167.414-.333.828-.333 1.242v6.618h-2.992v-11.665h2.909v1.654h.166c.167-.579.499-1.075.998-1.323a3.006 3.006 0 0 1 1.662-.497c.333 0 .582 0 .915.083.332.083.581.165.748.331zm10.224 11.417h-2.909v-1.406h-.167c-.166.414-.498.745-.997 1.075-.499.331-1.08.497-1.912.497a4.265 4.265 0 0 1-2.327-.662 5.24 5.24 0 0 1-1.662-2.068c-.416-.911-.582-1.986-.582-3.31s.249-2.399.665-3.309c.415-.91.997-1.572 1.662-1.986.748-.414 1.496-.662 2.327-.662.749 0 1.413.166 1.912.497.499.33.831.661.998 1.075h.083v-5.295h2.909v15.554zm-7.813-5.874c0 1.076.249 1.986.665 2.648.415.662 1.08.993 1.995.993.581 0 1.08-.166 1.496-.497.332-.331.665-.745.831-1.324a6.43 6.43 0 0 0 .249-1.82c0-.993-.166-1.903-.582-2.565-.415-.662-.997-.993-1.911-.993-.915 0-1.497.331-1.995.993-.499.662-.748 1.489-.748 2.565zm-63.421-8.191c-3.823 0-6.899-3.144-6.899-6.95s3.076-6.867 6.899-6.867c3.824 0 6.899 3.061 6.899 6.867.083 3.806-3.075 6.95-6.899 6.95zm0-11.087a4.159 4.159 0 0 0-4.156 4.137c0 2.317 1.912 4.137 4.156 4.137a4.158 4.158 0 0 0 4.156-4.137c.083-2.234-1.828-4.137-4.156-4.137z"/></g><g clip-path="url(#clip1)" fill="#fff" fill-opacity=".5"><path d="M281.985 333.637a1.762 1.762 0 0 0-3.003 1.247c.001.466.187.913.517 1.242a7.913 7.913 0 0 1 1.716 2.563 7.905 7.905 0 0 1 0 6.048 7.913 7.913 0 0 1-1.716 2.563 1.77 1.77 0 0 0-.517 1.242 1.763 1.763 0 0 0 1.758 1.759 1.772 1.772 0 0 0 1.245-.514 11.395 11.395 0 0 0 3.347-8.069 11.388 11.388 0 0 0-3.347-8.069v-.012z"/><path d="M284.785 332.408a13.156 13.156 0 0 1 0 18.608 1.756 1.756 0 0 0 1.916 2.876c.214-.092.408-.226.57-.393a16.664 16.664 0 0 0 0-23.585 1.76 1.76 0 0 0-1.921-.377 1.754 1.754 0 0 0-1.084 1.629c.001.466.188.913.519 1.242z"/></g><rect x="218.684" y="315.966" width="46.879" height="49.213" rx="5" fill="#EEC458"/><rect x="218.684" y="315.966" width="46.879" height="49.213" rx="5" fill="url(#paint1_linear)" fill-opacity=".6"/><mask id="a" maskUnits="userSpaceOnUse" x="218" y="315" width="48" height="51"><rect x="218.684" y="315.966" width="46.879" height="49.213" rx="5" fill="#EEC458"/><rect x="218.684" y="315.966" width="46.879" height="49.213" rx="5" fill="url(#paint2_linear)" fill-opacity=".6"/></mask><g mask="url(#a)"><path stroke="#C4A145" stroke-width="4" d="M198.025 330.449h38.191v49.054h-38.191zm55.474-22.626h38.191v62.318h-38.191z"/><path fill="#C4A145" d="M253.062 330.009h13.283v3.121h-13.283z"/><path fill="#C4A145" d="M253.062 330.009h13.283v3.121h-13.283z"/><path fill="#C4A145" d="M253.062 330.009h13.283v3.121h-13.283z"/><path fill="#C4A145" d="M253.062 330.009h13.283v3.121h-13.283zm0 17.165h13.283v3.121h-13.283z"/><path fill="#C4A145" d="M253.062 347.174h13.283v3.121h-13.283z"/><path fill="#C4A145" d="M253.062 347.174h13.283v3.121h-13.283z"/><path fill="#C4A145" d="M253.062 347.174h13.283v3.121h-13.283zm-39.066-7.022h22.658v3.121h-22.658z"/><path fill="#C4A145" d="M213.996 340.152h22.658v3.121h-22.658z"/><path fill="#C4A145" d="M213.996 340.152h22.658v3.121h-22.658z"/><path fill="#C4A145" d="M213.996 340.152h22.658v3.121h-22.658zm0 12.483h22.658v3.121h-22.658z"/><path fill="#C4A145" d="M213.996 352.635h22.658v3.121h-22.658z"/><path fill="#C4A145" d="M213.996 352.635h22.658v3.121h-22.658z"/><path fill="#C4A145" d="M213.996 352.635h22.658v3.121h-22.658z"/></g><defs><filter id="filter0_d" x="127.583" y="52.64" width="274.396" height="391.092" filterUnits="userSpaceOnUse" color-interpolation-filters="sRGB"><feFlood flood-opacity="0" result="BackgroundImageFix"/><feColorMatrix in="SourceAlpha" values="0 0 0 0 0 0 0 0 0 0 0 0 0 0 0 0 0 0 127 0"/><feOffset dy="4"/><feGaussianBlur stdDeviation="10"/><feColorMatrix values="0 0 0 0 0 0 0 0 0 0 0 0 0 0 0 0 0 0 0.25 0"/><feBlend in2="BackgroundImageFix" result="effect1_dropShadow"/><feBlend in="SourceGraphic" in2="effect1_dropShadow" result="shape"/></filter><linearGradient id="paint0_linear" x1="74.92" y1="370.58" x2="381.362" y2="-102.625" gradientUnits="userSpaceOnUse"><stop/><stop offset="1" stop-color="#fff"/></linearGradient><linearGradient id="paint1_linear" x1="288.482" y1="299.561" x2="222.884" y2="330.7" gradientUnits="userSpaceOnUse"><stop stop-color="#fff"/><stop offset="1" stop-color="#fff" stop-opacity="0"/></linearGradient><linearGradient id="paint2_linear" x1="288.482" y1="299.561" x2="222.884" y2="330.7" gradientUnits="userSpaceOnUse"><stop stop-color="#fff"/><stop offset="1" stop-color="#fff" stop-opacity="0"/></linearGradient><clipPath id="clip0"><path fill="#fff" transform="translate(225.715 98.288)" d="M0 0h78.132v32.798H0z"/></clipPath><clipPath id="clip1"><path fill="#fff" transform="rotate(90 -14.239 306.408)" d="M0 0h42.131v13.324H0z"/></clipPath></defs></svg>