<svg width="91" height="34" fill="none" xmlns="http://www.w3.org/2000/svg"><path fill-rule="evenodd" clip-rule="evenodd" d="M17.333 0C7.76 0 0 7.611 0 17s7.76 17 17.333 17c9.573 0 17.334-7.611 17.334-17S26.907 0 17.333 0z" fill="#4360DF"/><path fill-rule="evenodd" clip-rule="evenodd" d="M17.915 16.255c.87.088 1.741.177 2.811.119 2.9-.159 4.656-1.618 4.531-3.8-.127-2.22-2.463-3.587-4.801-3.459-3.81.208-6.611 3.489-6.927 7.238a9.435 9.435 0 0 1 1.575-.218c1.07-.058 1.941.03 2.811.12zm-7.468 4.852c.12 2.035 2.334 3.288 4.549 3.17 3.609-.19 6.263-3.197 6.562-6.634a9.224 9.224 0 0 1-1.493.2c-1.014.053-1.838-.028-2.663-.11-.825-.081-1.65-.162-2.663-.109-2.746.146-4.41 1.483-4.292 3.483z" fill="#fff"/><path d="M41.412 19.823h2.506c0 .416.12.715.359.896.24.181.547.272.922.272.31 0 .563-.056.759-.168.201-.117.302-.307.302-.568a.538.538 0 0 0-.13-.376.976.976 0 0 0-.384-.265 5.07 5.07 0 0 0-.67-.24 39.78 39.78 0 0 1-.979-.304 20.295 20.295 0 0 1-.971-.328 3.367 3.367 0 0 1-.792-.432 1.866 1.866 0 0 1-.538-.624c-.125-.246-.188-.55-.188-.913 0-.416.084-.776.253-1.08.169-.305.405-.556.71-.753.305-.197.67-.344 1.094-.44a6.046 6.046 0 0 1 1.403-.152c.626 0 1.165.07 1.616.208.452.139.822.328 1.11.568.289.24.5.523.637.849a2.6 2.6 0 0 1 .212 1.048h-2.522c0-.325-.087-.579-.261-.76-.169-.182-.427-.272-.775-.272a1.28 1.28 0 0 0-.686.176.555.555 0 0 0-.285.512c0 .155.043.28.13.376.093.09.226.174.4.248.174.075.389.152.645.232.255.075.55.166.881.272.36.097.694.203 1.004.32.31.118.582.262.816.433.24.165.427.376.563.632.142.251.212.571.212.96 0 .46-.098.852-.293 1.177-.196.32-.46.582-.792.785a3.38 3.38 0 0 1-1.143.432 6.75 6.75 0 0 1-1.37.136c-1.192 0-2.117-.243-2.776-.728-.652-.491-.979-1.2-.979-2.13zm7.99-3.394v-1.865h1.265v-2.345h2.546v2.345h1.837v1.865h-1.837v2.826c0 .293.027.528.082.704.054.17.13.307.228.408.104.096.226.16.368.192.147.027.31.04.49.04.108 0 .247-.002.416-.008a3.92 3.92 0 0 0 .44-.048v1.921a10.866 10.866 0 0 1-1.722.128 7.37 7.37 0 0 1-.946-.064 2.21 2.21 0 0 1-.923-.336c-.283-.181-.517-.459-.702-.832-.184-.38-.277-.897-.277-1.553v-3.378h-1.265zm6.57 2.081c0-.592.095-1.142.285-1.649.196-.507.466-.942.808-1.305a3.919 3.919 0 0 1 1.217-.872 3.54 3.54 0 0 1 1.501-.32c.604 0 1.126.125 1.567.376.446.25.78.568 1.004.953v-1.13h2.554v7.901h-2.554v-1.112c-.202.362-.525.672-.971.928-.446.256-.98.384-1.6.384a3.576 3.576 0 0 1-1.502-.32 3.919 3.919 0 0 1-1.216-.872 4.04 4.04 0 0 1-.808-1.313 4.653 4.653 0 0 1-.285-1.649zm2.538 0c0 .272.046.534.139.784.098.246.228.46.391.64.17.177.37.32.604.433.234.107.495.16.784.16a1.865 1.865 0 0 0 1.387-.592c.169-.182.3-.395.392-.64a2.1 2.1 0 0 0 .147-.785c0-.272-.05-.528-.147-.768a2.036 2.036 0 0 0-.392-.64 1.739 1.739 0 0 0-.596-.441 1.887 1.887 0 0 0-.791-.16c-.288 0-.55.053-.784.16a1.825 1.825 0 0 0-.604.44c-.163.187-.293.4-.391.64-.093.24-.139.497-.139.769zm7.77-2.081v-1.865h1.264v-2.345h2.547v2.345h1.836v1.865h-1.836v2.826c0 .293.027.528.081.704.055.17.13.307.23.408.103.096.224.16.366.192.147.027.31.04.49.04.109 0 .248-.002.416-.008.169-.01.316-.026.44-.048v1.921a10.873 10.873 0 0 1-1.722.128 7.37 7.37 0 0 1-.946-.064 2.21 2.21 0 0 1-.922-.336c-.283-.181-.517-.459-.702-.832-.185-.38-.278-.897-.278-1.553v-3.378H66.28zm7.1 2.826v-4.691h2.538v4.05c0 .566.103 1.027.31 1.385.207.352.577.528 1.11.528.533 0 .925-.179 1.175-.536.256-.363.384-.851.384-1.465v-3.962h2.554v7.9h-2.554v-1.128a2.326 2.326 0 0 1-1.02.976c-.458.235-1.004.352-1.64.352-.556 0-1.013-.085-1.372-.256A2.605 2.605 0 0 1 74 21.76a2.336 2.336 0 0 1-.506-1.057 7.88 7.88 0 0 1-.114-1.448zm9.72.568h2.506c0 .416.12.715.359.896.239.181.546.272.921.272.31 0 .564-.056.76-.168.201-.117.302-.307.302-.568a.538.538 0 0 0-.131-.376.972.972 0 0 0-.383-.265 5.08 5.08 0 0 0-.67-.24 39.78 39.78 0 0 1-.979-.304 20.22 20.22 0 0 1-.971-.328 3.356 3.356 0 0 1-.792-.432 1.867 1.867 0 0 1-.538-.624c-.125-.246-.188-.55-.188-.913 0-.416.084-.776.252-1.08.17-.305.406-.556.71-.753.306-.197.67-.344 1.094-.44a6.045 6.045 0 0 1 1.404-.152c.626 0 1.164.07 1.616.208.451.139.822.328 1.11.568.289.24.5.523.636.849.142.325.213.675.213 1.048h-2.522c0-.325-.087-.579-.261-.76-.169-.182-.428-.272-.776-.272-.266 0-.495.058-.685.176a.555.555 0 0 0-.286.512c0 .155.044.28.13.376a1.3 1.3 0 0 0 .4.248c.175.075.39.152.645.232.257.075.55.166.882.272.359.097.694.203 1.004.32.31.118.582.262.816.433.24.165.427.376.563.632.141.251.212.571.212.96 0 .46-.098.852-.294 1.177-.195.32-.46.582-.791.785a3.377 3.377 0 0 1-1.143.432 6.75 6.75 0 0 1-1.37.136c-1.192 0-2.117-.243-2.776-.728-.652-.491-.98-1.2-.98-2.13z" fill="#fff"/></svg>